<?xml version="1.0" encoding="UTF-8" standalone="no"?>

<svg
   xmlns:svg="http://www.w3.org/2000/svg"
   xmlns="http://www.w3.org/2000/svg"
   version="1.1"
   id="Layer_1"
   x="0px"
   y="0px"
   viewBox="0 0 900 900"
   width="900"
   height="900">
<style
   type="text/css"
   id="style4646">
	.st0{fill:#0A1440;}
	.st1{fill:#2970FF;}
	.st2{fill:#2ED9A3;}
</style>
<rect
   x="0"
   y="0"
   class="st0"
   width="900"
   height="900"
   id="rect4648"
   style="fill:#0a1440;stroke-width:0.59293574"/>
<g
   id="g4682"
   transform="translate(-19.164833,-37.2971)">
	<g
   id="g4652">
		<circle
   class="st1"
   cx="473.17999"
   cy="80.559998"
   r="14.05"
   id="circle4650"
   style="fill:#2970ff" />
	</g>
	<g
   id="g4666">
		<g
   id="g4656">
			<path
   class="st1"
   d="m 477.21,103.03 c -0.28,0.28 -0.68,0.44 -1.1,0.41 -2.21,-0.16 -2.89,-0.33 -4.13,-0.63 -0.5,-0.12 -1.07,-0.26 -1.9,-0.44 -0.75,-0.16 -1.24,-0.89 -1.1,-1.64 l 1.64,-8.82 c 0.14,-0.77 0.88,-1.28 1.65,-1.13 0.77,0.14 1.28,0.88 1.13,1.65 l -1.39,7.48 c 0.23,0.06 0.44,0.11 0.63,0.15 1.16,0.28 1.69,0.41 3.67,0.55 0.78,0.06 1.37,0.73 1.31,1.51 -0.03,0.36 -0.18,0.68 -0.41,0.91 z"
   id="path4654"
   
   style="fill:#2970ff" />
		</g>
		<g
   id="g4660">
			<path
   class="st1"
   d="m 465.77,85.94 c -0.2,0.2 -0.45,0.34 -0.74,0.39 l -8.82,1.64 c -0.75,0.14 -1.48,-0.35 -1.64,-1.1 -0.18,-0.83 -0.32,-1.4 -0.44,-1.9 -0.3,-1.24 -0.47,-1.92 -0.63,-4.13 -0.06,-0.78 0.53,-1.46 1.31,-1.51 0.78,-0.06 1.46,0.53 1.51,1.31 0.14,1.97 0.27,2.5 0.55,3.67 0.05,0.19 0.1,0.4 0.15,0.63 l 7.48,-1.39 c 0.77,-0.14 1.51,0.36 1.65,1.13 0.1,0.47 -0.06,0.94 -0.38,1.26 z"
   id="path4658"
   
   style="fill:#2970ff" />
		</g>
		<g
   id="g4664">
			<path
   class="st1"
   d="m 466.1,100.07 c -0.5,0.5 -1.31,0.56 -1.88,0.1 -1.68,-1.34 -2.3,-2.05 -3.17,-3.04 -0.39,-0.44 -0.83,-0.94 -1.46,-1.61 -0.53,-0.56 -0.51,-1.43 0.03,-1.97 0,0 0,0 0,0 l 6.35,-6.34 c 0.55,-0.55 1.45,-0.55 2,0 0.55,0.55 0.55,1.45 0,2 0,0 0,0 0,0 l -5.39,5.38 c 0.22,0.24 0.41,0.47 0.6,0.67 0.82,0.94 1.32,1.51 2.81,2.69 0.61,0.49 0.71,1.38 0.22,1.99 -0.04,0.05 -0.07,0.09 -0.11,0.13 z"
   id="path4662"
   
   style="fill:#2970ff" />
		</g>
	</g>
	<g
   id="g4680">
		<g
   id="g4670">
			<path
   class="st1"
   d="m 495.46,84.38 c -0.23,0.23 -0.55,0.39 -0.9,0.41 -0.78,0.06 -1.46,-0.53 -1.51,-1.31 -0.14,-1.97 -0.27,-2.5 -0.55,-3.67 -0.05,-0.19 -0.1,-0.4 -0.15,-0.63 l -7.48,1.39 c -0.77,0.14 -1.51,-0.36 -1.65,-1.13 -0.14,-0.77 0.37,-1.51 1.13,-1.65 l 8.82,-1.64 c 0.75,-0.14 1.48,0.35 1.64,1.1 0.18,0.83 0.32,1.4 0.44,1.9 0.3,1.24 0.47,1.92 0.63,4.13 0.02,0.43 -0.14,0.82 -0.42,1.1 z"
   id="path4668"
   
   style="fill:#2970ff" />
		</g>
		<g
   id="g4674">
			<path
   class="st1"
   d="m 478.36,72.95 c -0.32,0.32 -0.78,0.48 -1.26,0.39 -0.77,-0.14 -1.28,-0.88 -1.13,-1.65 l 1.39,-7.48 c -0.23,-0.06 -0.44,-0.11 -0.63,-0.15 -1.16,-0.28 -1.69,-0.41 -3.67,-0.55 -0.78,-0.06 -1.37,-0.73 -1.31,-1.51 0.06,-0.78 0.73,-1.37 1.51,-1.31 2.21,0.16 2.89,0.33 4.13,0.63 0.5,0.12 1.07,0.26 1.9,0.44 0.75,0.16 1.24,0.89 1.1,1.64 l -1.64,8.82 c -0.05,0.28 -0.19,0.53 -0.39,0.73 z"
   id="path4672"
   
   style="fill:#2970ff" />
		</g>
		<g
   id="g4678">
			<path
   class="st1"
   d="m 492.5,73.27 c -0.04,0.04 -0.08,0.07 -0.12,0.11 -0.61,0.49 -1.5,0.39 -1.99,-0.22 -1.18,-1.48 -1.75,-1.98 -2.69,-2.81 -0.21,-0.18 -0.43,-0.38 -0.67,-0.6 l -5.38,5.39 c 0,0 0,0 0,0 -0.55,0.55 -1.45,0.55 -2,0 -0.55,-0.55 -0.55,-1.45 0,-2 l 6.34,-6.35 c 0.54,-0.54 1.42,-0.55 1.97,-0.03 0.66,0.63 1.17,1.07 1.61,1.46 0.99,0.86 1.7,1.49 3.04,3.17 0.45,0.57 0.39,1.38 -0.11,1.88 z"
   id="path4676"
   
   style="fill:#2970ff" />
		</g>
	</g>
</g>
<g
   id="g4716"
   transform="translate(-47.449104,-68.409798)">
	<g
   id="g4686">
		<circle
   class="st1"
   cx="567.65002"
   cy="333.22"
   r="14.05"
   id="circle4684"
   style="fill:#2970ff" />
	</g>
	<g
   id="g4700">
		<g
   id="g4690">
			<path
   class="st1"
   d="m 571.68,355.69 c -0.28,0.28 -0.68,0.44 -1.1,0.41 -2.21,-0.16 -2.89,-0.33 -4.13,-0.63 -0.5,-0.12 -1.07,-0.26 -1.9,-0.44 -0.75,-0.16 -1.24,-0.89 -1.1,-1.64 l 1.64,-8.82 c 0.14,-0.77 0.88,-1.28 1.65,-1.13 0.77,0.14 1.28,0.88 1.13,1.65 l -1.39,7.48 c 0.23,0.06 0.44,0.11 0.63,0.15 1.16,0.28 1.69,0.41 3.67,0.55 0.78,0.06 1.37,0.73 1.31,1.51 -0.03,0.37 -0.18,0.68 -0.41,0.91 z"
   id="path4688"
   
   style="fill:#2970ff" />
		</g>
		<g
   id="g4694">
			<path
   class="st1"
   d="m 560.24,338.6 c -0.2,0.2 -0.45,0.34 -0.74,0.39 l -8.82,1.64 c -0.75,0.14 -1.48,-0.35 -1.64,-1.1 -0.18,-0.83 -0.32,-1.4 -0.44,-1.9 -0.3,-1.24 -0.47,-1.92 -0.63,-4.13 -0.06,-0.78 0.53,-1.46 1.31,-1.51 0.78,-0.06 1.46,0.53 1.51,1.31 0.14,1.97 0.27,2.51 0.55,3.67 0.05,0.19 0.1,0.4 0.15,0.63 l 7.48,-1.39 c 0.77,-0.14 1.51,0.36 1.65,1.13 0.1,0.48 -0.06,0.94 -0.38,1.26 z"
   id="path4692"
   
   style="fill:#2970ff" />
		</g>
		<g
   id="g4698">
			<path
   class="st1"
   d="m 560.57,352.73 c -0.5,0.5 -1.31,0.56 -1.88,0.1 -1.68,-1.34 -2.3,-2.05 -3.17,-3.04 -0.39,-0.44 -0.83,-0.94 -1.46,-1.61 -0.53,-0.56 -0.51,-1.43 0.03,-1.97 0,0 0,0 0,0 l 6.35,-6.34 c 0.55,-0.55 1.45,-0.55 2,0 0.55,0.55 0.55,1.45 0,2 0,0 0,0 0,0 l -5.39,5.38 c 0.22,0.24 0.41,0.47 0.6,0.67 0.82,0.94 1.32,1.51 2.81,2.69 0.61,0.49 0.71,1.38 0.22,1.99 -0.04,0.06 -0.08,0.1 -0.11,0.13 z"
   id="path4696"
   
   style="fill:#2970ff" />
		</g>
	</g>
	<g
   id="g4714">
		<g
   id="g4704">
			<path
   class="st1"
   d="m 589.92,337.04 c -0.23,0.23 -0.55,0.39 -0.9,0.41 -0.78,0.06 -1.46,-0.53 -1.51,-1.31 -0.14,-1.97 -0.27,-2.51 -0.55,-3.67 -0.05,-0.19 -0.1,-0.4 -0.15,-0.63 l -7.48,1.39 c -0.77,0.14 -1.51,-0.36 -1.65,-1.13 -0.14,-0.77 0.37,-1.51 1.13,-1.65 l 8.82,-1.64 c 0.75,-0.14 1.48,0.35 1.64,1.1 0.18,0.83 0.32,1.4 0.44,1.9 0.3,1.24 0.47,1.92 0.63,4.13 0.02,0.43 -0.14,0.82 -0.42,1.1 z"
   id="path4702"
   
   style="fill:#2970ff" />
		</g>
		<g
   id="g4708">
			<path
   class="st1"
   d="m 572.83,325.61 c -0.32,0.32 -0.78,0.48 -1.26,0.39 -0.77,-0.14 -1.28,-0.88 -1.13,-1.65 l 1.39,-7.48 c -0.23,-0.06 -0.44,-0.11 -0.63,-0.15 -1.16,-0.28 -1.69,-0.41 -3.67,-0.55 -0.78,-0.06 -1.37,-0.73 -1.31,-1.51 0.06,-0.78 0.73,-1.37 1.51,-1.31 2.21,0.16 2.89,0.33 4.13,0.63 0.5,0.12 1.07,0.26 1.9,0.44 0.75,0.16 1.24,0.89 1.1,1.64 l -1.64,8.82 c -0.05,0.28 -0.19,0.53 -0.39,0.73 z"
   id="path4706"
   
   style="fill:#2970ff" />
		</g>
		<g
   id="g4712">
			<path
   class="st1"
   d="m 586.97,325.94 c -0.04,0.04 -0.08,0.07 -0.12,0.11 -0.61,0.49 -1.5,0.39 -1.99,-0.22 -1.18,-1.48 -1.75,-1.98 -2.69,-2.81 -0.21,-0.18 -0.43,-0.38 -0.67,-0.6 l -5.38,5.39 c 0,0 0,0 0,0 -0.55,0.55 -1.45,0.55 -2,0 -0.55,-0.55 -0.55,-1.45 0,-2 l 6.34,-6.35 c 0.54,-0.54 1.42,-0.55 1.97,-0.03 0.66,0.63 1.17,1.07 1.61,1.46 0.99,0.86 1.7,1.49 3.04,3.17 0.44,0.56 0.39,1.37 -0.11,1.88 z"
   id="path4710"
   
   style="fill:#2970ff" />
		</g>
	</g>
</g>

<g
   id="g4784"
   transform="translate(-47.449104,-68.409798)">
	<g
   id="g4754">
		<circle
   class="st1"
   cx="688.40997"
   cy="506.56"
   r="14.05"
   id="circle4752"
   style="fill:#2970ff" />
	</g>
	<g
   id="g4768">
		<g
   id="g4758">
			<path
   class="st1"
   d="m 665.94,510.58 c -0.28,-0.28 -0.44,-0.68 -0.41,-1.1 0.16,-2.21 0.33,-2.89 0.63,-4.13 0.12,-0.5 0.26,-1.07 0.44,-1.9 0.16,-0.75 0.89,-1.24 1.64,-1.1 l 8.82,1.64 c 0.77,0.14 1.28,0.88 1.13,1.65 -0.14,0.77 -0.88,1.28 -1.65,1.13 l -7.48,-1.39 c -0.06,0.23 -0.11,0.44 -0.15,0.63 -0.28,1.16 -0.41,1.69 -0.55,3.67 -0.06,0.78 -0.73,1.37 -1.51,1.31 -0.37,-0.02 -0.68,-0.17 -0.91,-0.41 z"
   id="path4756"
   
   style="fill:#2970ff" />
		</g>
		<g
   id="g4762">
			<path
   class="st1"
   d="m 683.03,499.15 c -0.2,-0.2 -0.34,-0.45 -0.39,-0.74 L 681,489.59 c -0.14,-0.75 0.35,-1.48 1.1,-1.64 0.83,-0.18 1.4,-0.32 1.9,-0.44 1.24,-0.3 1.92,-0.47 4.13,-0.63 0.78,-0.06 1.46,0.53 1.51,1.31 0.06,0.78 -0.53,1.46 -1.31,1.51 -1.97,0.14 -2.51,0.27 -3.67,0.55 -0.19,0.05 -0.4,0.1 -0.63,0.15 l 1.39,7.48 c 0.14,0.77 -0.36,1.51 -1.13,1.65 -0.48,0.1 -0.94,-0.06 -1.26,-0.38 z"
   id="path4760"
   
   style="fill:#2970ff" />
		</g>
		<g
   id="g4766">
			<path
   class="st1"
   d="m 668.9,499.48 c -0.5,-0.5 -0.56,-1.31 -0.1,-1.88 1.34,-1.68 2.05,-2.3 3.04,-3.17 0.44,-0.39 0.94,-0.83 1.61,-1.46 0.56,-0.53 1.43,-0.51 1.97,0.03 0,0 0,0 0,0 l 6.34,6.35 c 0.55,0.55 0.55,1.45 0,2 -0.55,0.55 -1.45,0.55 -2,0 0,0 0,0 0,0 l -5.38,-5.39 c -0.24,0.22 -0.47,0.41 -0.67,0.6 -0.94,0.82 -1.51,1.32 -2.69,2.81 -0.49,0.61 -1.38,0.71 -1.99,0.22 -0.06,-0.04 -0.1,-0.08 -0.13,-0.11 z"
   id="path4764"
   
   style="fill:#2970ff" />
		</g>
	</g>
	<g
   id="g4782">
		<g
   id="g4772">
			<path
   class="st1"
   d="m 684.58,528.83 c -0.23,-0.23 -0.39,-0.55 -0.41,-0.9 -0.06,-0.78 0.53,-1.46 1.31,-1.51 1.97,-0.14 2.51,-0.27 3.67,-0.55 0.19,-0.05 0.4,-0.1 0.63,-0.15 l -1.39,-7.48 c -0.14,-0.77 0.36,-1.51 1.13,-1.65 0.77,-0.14 1.51,0.37 1.65,1.13 l 1.64,8.82 c 0.14,0.75 -0.35,1.48 -1.1,1.64 -0.83,0.18 -1.4,0.32 -1.9,0.44 -1.24,0.3 -1.92,0.47 -4.13,0.63 -0.42,0.02 -0.82,-0.14 -1.1,-0.42 z"
   id="path4770"
   
   style="fill:#2970ff" />
		</g>
		<g
   id="g4776">
			<path
   class="st1"
   d="m 696.02,511.74 c -0.32,-0.32 -0.48,-0.78 -0.39,-1.26 0.14,-0.77 0.88,-1.28 1.65,-1.13 l 7.48,1.39 c 0.06,-0.23 0.11,-0.44 0.15,-0.63 0.28,-1.16 0.41,-1.69 0.55,-3.67 0.06,-0.78 0.73,-1.37 1.51,-1.31 0.78,0.06 1.37,0.73 1.31,1.51 -0.16,2.21 -0.33,2.89 -0.63,4.13 -0.12,0.5 -0.26,1.07 -0.44,1.9 -0.16,0.75 -0.89,1.24 -1.64,1.1 l -8.82,-1.64 c -0.28,-0.05 -0.53,-0.19 -0.73,-0.39 z"
   id="path4774"
   
   style="fill:#2970ff" />
		</g>
		<g
   id="g4780">
			<path
   class="st1"
   d="m 695.69,525.88 c -0.04,-0.04 -0.07,-0.08 -0.11,-0.12 -0.49,-0.61 -0.39,-1.5 0.22,-1.99 1.48,-1.18 1.98,-1.75 2.81,-2.69 0.18,-0.21 0.38,-0.43 0.6,-0.67 l -5.39,-5.38 c 0,0 0,0 0,0 -0.55,-0.55 -0.55,-1.45 0,-2 0.55,-0.55 1.45,-0.55 2,0 l 6.35,6.34 c 0.54,0.54 0.55,1.42 0.03,1.97 -0.63,0.66 -1.07,1.17 -1.46,1.61 -0.86,0.98 -1.49,1.7 -3.17,3.04 -0.56,0.44 -1.38,0.39 -1.88,-0.11 z"
   id="path4778"
   
   style="fill:#2970ff" />
		</g>
	</g>
</g>
<g
   id="g4818"
   transform="translate(-47.449104,-68.409798)">
	<g
   id="g4788">
		<circle
   class="st1"
   cx="651.58002"
   cy="422.82001"
   r="14.05"
   id="circle4786"
   style="fill:#2970ff" />
	</g>
	<g
   id="g4802">
		<g
   id="g4792">
			<path
   class="st1"
   d="m 655.61,445.29 c -0.28,0.28 -0.68,0.44 -1.1,0.41 -2.21,-0.16 -2.89,-0.33 -4.13,-0.63 -0.5,-0.12 -1.07,-0.26 -1.9,-0.44 -0.75,-0.16 -1.24,-0.89 -1.1,-1.64 l 1.64,-8.82 c 0.14,-0.77 0.88,-1.28 1.65,-1.13 0.77,0.14 1.28,0.88 1.13,1.65 l -1.39,7.48 c 0.23,0.06 0.44,0.11 0.63,0.15 1.16,0.28 1.69,0.41 3.67,0.55 0.78,0.06 1.37,0.73 1.31,1.51 -0.03,0.37 -0.18,0.68 -0.41,0.91 z"
   id="path4790"
   
   style="fill:#2970ff" />
		</g>
		<g
   id="g4796">
			<path
   class="st1"
   d="m 644.17,428.2 c -0.2,0.2 -0.45,0.34 -0.74,0.39 l -8.82,1.64 c -0.75,0.14 -1.48,-0.35 -1.64,-1.1 -0.18,-0.83 -0.32,-1.4 -0.44,-1.9 -0.3,-1.24 -0.47,-1.92 -0.63,-4.13 -0.06,-0.78 0.53,-1.46 1.31,-1.51 0.78,-0.06 1.46,0.53 1.51,1.31 0.14,1.98 0.27,2.51 0.55,3.67 0.05,0.19 0.1,0.4 0.15,0.63 l 7.48,-1.39 c 0.77,-0.14 1.51,0.36 1.65,1.13 0.1,0.48 -0.06,0.94 -0.38,1.26 z"
   id="path4794"
   
   style="fill:#2970ff" />
		</g>
		<g
   id="g4800">
			<path
   class="st1"
   d="m 644.5,442.34 c -0.5,0.5 -1.31,0.56 -1.88,0.1 -1.68,-1.34 -2.3,-2.05 -3.17,-3.04 -0.39,-0.44 -0.83,-0.94 -1.46,-1.61 -0.53,-0.56 -0.51,-1.43 0.03,-1.97 0,0 0,0 0,0 l 6.35,-6.34 c 0.55,-0.55 1.45,-0.55 2,0 0.55,0.55 0.55,1.45 0,2 0,0 0,0 0,0 l -5.39,5.38 c 0.22,0.24 0.41,0.47 0.6,0.67 0.82,0.94 1.32,1.51 2.81,2.69 0.61,0.49 0.71,1.38 0.22,1.99 -0.04,0.05 -0.07,0.09 -0.11,0.13 z"
   id="path4798"
   
   style="fill:#2970ff" />
		</g>
	</g>
	<g
   id="g4816">
		<g
   id="g4806">
			<path
   class="st1"
   d="m 673.86,426.65 c -0.23,0.23 -0.55,0.39 -0.9,0.41 -0.78,0.06 -1.46,-0.53 -1.51,-1.31 -0.14,-1.97 -0.27,-2.51 -0.55,-3.67 -0.05,-0.19 -0.1,-0.4 -0.15,-0.63 l -7.48,1.39 c -0.77,0.14 -1.51,-0.36 -1.65,-1.13 -0.14,-0.77 0.37,-1.51 1.13,-1.65 l 8.82,-1.64 c 0.75,-0.14 1.48,0.35 1.64,1.1 0.18,0.83 0.32,1.4 0.44,1.9 0.3,1.24 0.47,1.92 0.63,4.13 0.02,0.42 -0.14,0.82 -0.42,1.1 z"
   id="path4804"
   
   style="fill:#2970ff" />
		</g>
		<g
   id="g4810">
			<path
   class="st1"
   d="m 656.76,415.21 c -0.32,0.32 -0.78,0.48 -1.26,0.39 -0.77,-0.14 -1.28,-0.88 -1.13,-1.65 l 1.39,-7.48 c -0.23,-0.06 -0.44,-0.11 -0.63,-0.15 -1.16,-0.28 -1.69,-0.41 -3.67,-0.55 -0.78,-0.06 -1.37,-0.73 -1.31,-1.51 0.06,-0.78 0.73,-1.37 1.51,-1.31 2.21,0.16 2.89,0.33 4.13,0.63 0.5,0.12 1.07,0.26 1.9,0.44 0.75,0.16 1.24,0.89 1.1,1.64 l -1.64,8.82 c -0.05,0.28 -0.19,0.53 -0.39,0.73 z"
   id="path4808"
   
   style="fill:#2970ff" />
		</g>
		<g
   id="g4814">
			<path
   class="st1"
   d="m 670.9,415.54 c -0.04,0.04 -0.08,0.07 -0.12,0.11 -0.61,0.49 -1.5,0.39 -1.99,-0.22 -1.18,-1.48 -1.75,-1.98 -2.69,-2.81 -0.21,-0.18 -0.43,-0.38 -0.67,-0.6 l -5.38,5.39 c 0,0 0,0 0,0 -0.55,0.55 -1.45,0.55 -2,0 -0.55,-0.55 -0.55,-1.45 0,-2 l 6.34,-6.35 c 0.54,-0.54 1.42,-0.55 1.97,-0.03 0.66,0.63 1.17,1.07 1.61,1.46 0.99,0.86 1.7,1.49 3.04,3.17 0.45,0.56 0.39,1.38 -0.11,1.88 z"
   id="path4812"
   
   style="fill:#2970ff" />
		</g>
	</g>
</g>
<g
   id="g4852"
   transform="translate(-47.449104,-68.409798)">
	<g
   id="g4822">
		<circle
   class="st1"
   cx="435.66"
   cy="321.63"
   r="14.05"
   id="circle4820"
   style="fill:#2970ff" />
	</g>
	<g
   id="g4836">
		<g
   id="g4826">
			<path
   class="st1"
   d="m 413.19,325.66 c -0.28,-0.28 -0.44,-0.68 -0.41,-1.1 0.16,-2.21 0.33,-2.89 0.63,-4.13 0.12,-0.5 0.26,-1.07 0.44,-1.9 0.16,-0.75 0.89,-1.24 1.64,-1.1 l 8.82,1.64 c 0.77,0.14 1.28,0.88 1.13,1.65 -0.14,0.77 -0.88,1.28 -1.65,1.13 l -7.48,-1.39 c -0.06,0.23 -0.11,0.44 -0.15,0.63 -0.28,1.16 -0.41,1.69 -0.55,3.67 -0.06,0.78 -0.73,1.37 -1.51,1.31 -0.36,-0.03 -0.67,-0.18 -0.91,-0.41 z"
   id="path4824"
   
   style="fill:#2970ff" />
		</g>
		<g
   id="g4830">
			<path
   class="st1"
   d="m 430.28,314.22 c -0.2,-0.2 -0.34,-0.45 -0.39,-0.74 l -1.64,-8.82 c -0.14,-0.75 0.35,-1.48 1.1,-1.64 0.83,-0.18 1.4,-0.32 1.9,-0.44 1.24,-0.3 1.92,-0.47 4.13,-0.63 0.78,-0.06 1.46,0.53 1.51,1.31 0.06,0.78 -0.53,1.46 -1.31,1.51 -1.97,0.14 -2.51,0.27 -3.67,0.55 -0.19,0.05 -0.4,0.1 -0.63,0.15 l 1.39,7.48 c 0.14,0.77 -0.36,1.51 -1.13,1.65 -0.47,0.1 -0.94,-0.06 -1.26,-0.38 z"
   id="path4828"
   
   style="fill:#2970ff" />
		</g>
		<g
   id="g4834">
			<path
   class="st1"
   d="m 416.15,314.55 c -0.5,-0.5 -0.56,-1.31 -0.1,-1.88 1.34,-1.68 2.05,-2.3 3.04,-3.17 0.44,-0.39 0.94,-0.83 1.61,-1.46 0.56,-0.53 1.43,-0.51 1.97,0.03 0,0 0,0 0,0 l 6.34,6.35 c 0.55,0.55 0.55,1.45 0,2 -0.55,0.55 -1.45,0.55 -2,0 0,0 0,0 0,0 l -5.38,-5.39 c -0.24,0.22 -0.47,0.41 -0.67,0.6 -0.94,0.82 -1.51,1.32 -2.69,2.81 -0.49,0.61 -1.38,0.71 -1.99,0.22 -0.05,-0.03 -0.09,-0.07 -0.13,-0.11 z"
   id="path4832"
   
   style="fill:#2970ff" />
		</g>
	</g>
	<g
   id="g4850">
		<g
   id="g4840">
			<path
   class="st1"
   d="m 431.84,343.91 c -0.23,-0.23 -0.39,-0.55 -0.41,-0.9 -0.06,-0.78 0.53,-1.46 1.31,-1.51 1.97,-0.14 2.51,-0.27 3.67,-0.55 0.19,-0.05 0.4,-0.1 0.63,-0.15 l -1.39,-7.48 c -0.14,-0.77 0.36,-1.51 1.13,-1.65 0.77,-0.14 1.51,0.37 1.65,1.13 l 1.64,8.82 c 0.14,0.75 -0.35,1.48 -1.1,1.64 -0.83,0.18 -1.4,0.32 -1.9,0.44 -1.24,0.3 -1.92,0.47 -4.13,0.63 -0.42,0.02 -0.82,-0.14 -1.1,-0.42 z"
   id="path4838"
   
   style="fill:#2970ff" />
		</g>
		<g
   id="g4844">
			<path
   class="st1"
   d="m 443.27,326.82 c -0.32,-0.32 -0.48,-0.78 -0.39,-1.26 0.14,-0.77 0.88,-1.28 1.65,-1.13 l 7.48,1.39 c 0.06,-0.23 0.11,-0.44 0.15,-0.63 0.28,-1.16 0.41,-1.69 0.55,-3.67 0.06,-0.78 0.73,-1.37 1.51,-1.31 0.78,0.06 1.37,0.73 1.31,1.51 -0.16,2.21 -0.33,2.89 -0.63,4.13 -0.12,0.5 -0.26,1.07 -0.44,1.9 -0.16,0.75 -0.89,1.24 -1.64,1.1 L 444,327.21 c -0.28,-0.06 -0.53,-0.2 -0.73,-0.39 z"
   id="path4842"
   
   style="fill:#2970ff" />
		</g>
		<g
   id="g4848">
			<path
   class="st1"
   d="m 442.95,340.95 c -0.04,-0.04 -0.07,-0.08 -0.11,-0.12 -0.49,-0.61 -0.39,-1.5 0.22,-1.99 1.48,-1.18 1.98,-1.75 2.81,-2.69 0.18,-0.21 0.38,-0.43 0.6,-0.67 l -5.39,-5.38 c 0,0 0,0 0,0 -0.55,-0.55 -0.55,-1.45 0,-2 0.55,-0.55 1.45,-0.55 2,0 l 6.35,6.34 c 0.54,0.54 0.55,1.42 0.03,1.97 -0.63,0.66 -1.07,1.17 -1.46,1.61 -0.86,0.99 -1.49,1.7 -3.17,3.04 -0.57,0.45 -1.38,0.39 -1.88,-0.11 z"
   id="path4846"
   
   style="fill:#2970ff" />
		</g>
	</g>
</g>

<g
   id="g4920"
   transform="translate(-47.449104,-68.409798)">
	<g
   id="g4890">
		<circle
   class="st1"
   cx="546.26001"
   cy="508.16"
   r="14.05"
   id="circle4888"
   style="fill:#2970ff" />
	</g>
	<g
   id="g4904">
		<g
   id="g4894">
			<path
   class="st1"
   d="m 568.73,504.14 c 0.28,0.28 0.44,0.68 0.41,1.1 -0.16,2.21 -0.33,2.89 -0.63,4.13 -0.12,0.5 -0.26,1.07 -0.44,1.9 -0.16,0.75 -0.89,1.24 -1.64,1.1 l -8.82,-1.64 c -0.77,-0.14 -1.28,-0.88 -1.13,-1.65 0.14,-0.77 0.88,-1.28 1.65,-1.13 l 7.48,1.39 c 0.06,-0.23 0.11,-0.44 0.15,-0.63 0.28,-1.16 0.41,-1.69 0.55,-3.67 0.06,-0.78 0.73,-1.37 1.51,-1.31 0.37,0.02 0.68,0.18 0.91,0.41 z"
   id="path4892"
   
   style="fill:#2970ff" />
		</g>
		<g
   id="g4898">
			<path
   class="st1"
   d="m 551.64,515.57 c 0.2,0.2 0.34,0.45 0.39,0.74 l 1.64,8.82 c 0.14,0.75 -0.35,1.48 -1.1,1.64 -0.83,0.18 -1.4,0.32 -1.9,0.44 -1.24,0.3 -1.92,0.47 -4.13,0.63 -0.78,0.06 -1.46,-0.53 -1.51,-1.31 -0.06,-0.78 0.53,-1.46 1.31,-1.51 1.97,-0.14 2.51,-0.27 3.67,-0.55 0.19,-0.05 0.4,-0.1 0.63,-0.15 l -1.39,-7.48 c -0.14,-0.77 0.36,-1.51 1.13,-1.65 0.48,-0.1 0.95,0.07 1.26,0.38 z"
   id="path4896"
   
   style="fill:#2970ff" />
		</g>
		<g
   id="g4902">
			<path
   class="st1"
   d="m 565.78,515.25 c 0.5,0.5 0.56,1.31 0.1,1.88 -1.34,1.68 -2.05,2.3 -3.04,3.17 -0.44,0.39 -0.94,0.83 -1.61,1.46 -0.56,0.53 -1.43,0.51 -1.97,-0.03 0,0 0,0 0,0 l -6.34,-6.35 c -0.55,-0.55 -0.55,-1.45 0,-2 0.55,-0.55 1.45,-0.55 2,0 0,0 0,0 0,0 l 5.38,5.39 c 0.24,-0.22 0.47,-0.41 0.67,-0.6 0.94,-0.82 1.51,-1.32 2.69,-2.81 0.49,-0.61 1.38,-0.71 1.99,-0.22 0.05,0.03 0.09,0.07 0.13,0.11 z"
   id="path4900"
   
   style="fill:#2970ff" />
		</g>
	</g>
	<g
   id="g4918">
		<g
   id="g4908">
			<path
   class="st1"
   d="m 550.09,485.89 c 0.23,0.23 0.39,0.55 0.41,0.9 0.06,0.78 -0.53,1.46 -1.31,1.51 -1.97,0.14 -2.51,0.27 -3.67,0.55 -0.19,0.05 -0.4,0.1 -0.63,0.15 l 1.39,7.48 c 0.14,0.77 -0.36,1.51 -1.13,1.65 -0.77,0.14 -1.51,-0.37 -1.65,-1.13 l -1.64,-8.82 c -0.14,-0.75 0.35,-1.48 1.1,-1.64 0.83,-0.18 1.4,-0.32 1.9,-0.44 1.24,-0.3 1.92,-0.47 4.13,-0.63 0.42,-0.02 0.82,0.14 1.1,0.42 z"
   id="path4906"
   
   style="fill:#2970ff" />
		</g>
		<g
   id="g4912">
			<path
   class="st1"
   d="m 538.65,502.98 c 0.32,0.32 0.48,0.78 0.39,1.26 -0.14,0.77 -0.88,1.28 -1.65,1.13 l -7.48,-1.39 c -0.06,0.23 -0.11,0.44 -0.15,0.63 -0.28,1.16 -0.41,1.69 -0.55,3.67 -0.06,0.78 -0.73,1.37 -1.51,1.31 -0.78,-0.06 -1.37,-0.73 -1.31,-1.51 0.16,-2.21 0.33,-2.89 0.63,-4.13 0.12,-0.5 0.26,-1.07 0.44,-1.9 0.16,-0.75 0.89,-1.24 1.64,-1.1 l 8.82,1.64 c 0.28,0.06 0.54,0.2 0.73,0.39 z"
   id="path4910"
   
   style="fill:#2970ff" />
		</g>
		<g
   id="g4916">
			<path
   class="st1"
   d="m 538.98,488.85 c 0.04,0.04 0.07,0.08 0.11,0.12 0.49,0.61 0.39,1.5 -0.22,1.99 -1.48,1.18 -1.98,1.75 -2.81,2.69 -0.18,0.21 -0.38,0.43 -0.6,0.67 l 5.39,5.38 c 0,0 0,0 0,0 0.55,0.55 0.55,1.45 0,2 -0.55,0.55 -1.45,0.55 -2,0 l -6.35,-6.34 c -0.54,-0.54 -0.55,-1.42 -0.03,-1.97 0.63,-0.66 1.07,-1.17 1.46,-1.61 0.86,-0.99 1.49,-1.7 3.17,-3.04 0.57,-0.45 1.38,-0.4 1.88,0.11 z"
   id="path4914"
   
   style="fill:#2970ff" />
		</g>
	</g>
</g>
<g
   id="g4954"
   transform="translate(-47.449104,-68.409798)">
	<g
   id="g4924">
		<circle
   class="st1"
   cx="658.15002"
   cy="894.45001"
   r="14.05"
   id="circle4922"
   style="fill:#2970ff" />
	</g>
	<g
   id="g4938">
		<g
   id="g4928">
			<path
   class="st1"
   d="m 680.62,890.42 c 0.28,0.28 0.44,0.68 0.41,1.1 -0.16,2.21 -0.33,2.89 -0.63,4.13 -0.12,0.5 -0.26,1.07 -0.44,1.9 -0.16,0.75 -0.89,1.24 -1.64,1.1 l -8.82,-1.64 c -0.77,-0.14 -1.28,-0.88 -1.13,-1.65 0.14,-0.77 0.88,-1.28 1.65,-1.13 l 7.48,1.39 c 0.06,-0.23 0.11,-0.44 0.15,-0.63 0.28,-1.16 0.41,-1.69 0.55,-3.67 0.06,-0.78 0.73,-1.37 1.51,-1.31 0.36,0.03 0.68,0.18 0.91,0.41 z"
   id="path4926"
   
   style="fill:#2970ff" />
		</g>
		<g
   id="g4932">
			<path
   class="st1"
   d="m 663.53,901.86 c 0.2,0.2 0.34,0.45 0.39,0.74 l 1.64,8.82 c 0.14,0.75 -0.35,1.48 -1.1,1.64 -0.83,0.18 -1.4,0.32 -1.9,0.44 -1.24,0.3 -1.92,0.47 -4.13,0.63 -0.78,0.06 -1.46,-0.53 -1.51,-1.31 -0.06,-0.78 0.53,-1.46 1.31,-1.51 1.98,-0.14 2.51,-0.27 3.67,-0.55 0.19,-0.05 0.4,-0.1 0.63,-0.15 l -1.39,-7.48 c -0.14,-0.77 0.36,-1.51 1.13,-1.65 0.47,-0.1 0.94,0.06 1.26,0.38 z"
   id="path4930"
   
   style="fill:#2970ff" />
		</g>
		<g
   id="g4936">
			<path
   class="st1"
   d="m 677.66,901.53 c 0.5,0.5 0.56,1.31 0.1,1.88 -1.34,1.68 -2.05,2.3 -3.04,3.17 -0.44,0.39 -0.94,0.83 -1.61,1.46 -0.56,0.53 -1.43,0.51 -1.97,-0.03 0,0 0,0 0,0 l -6.34,-6.35 c -0.55,-0.55 -0.55,-1.45 0,-2 0.55,-0.55 1.45,-0.55 2,0 0,0 0,0 0,0 l 5.38,5.39 c 0.24,-0.22 0.47,-0.41 0.67,-0.6 0.94,-0.82 1.51,-1.32 2.69,-2.81 0.49,-0.61 1.38,-0.71 1.99,-0.22 0.06,0.04 0.09,0.07 0.13,0.11 z"
   id="path4934"
   
   style="fill:#2970ff" />
		</g>
	</g>
	<g
   id="g4952">
		<g
   id="g4942">
			<path
   class="st1"
   d="m 661.97,872.18 c 0.23,0.23 0.39,0.55 0.41,0.9 0.06,0.78 -0.53,1.46 -1.31,1.51 -1.97,0.14 -2.51,0.27 -3.67,0.55 -0.19,0.05 -0.4,0.1 -0.63,0.15 l 1.39,7.48 c 0.14,0.77 -0.36,1.51 -1.13,1.65 -0.77,0.14 -1.51,-0.37 -1.65,-1.13 l -1.64,-8.82 c -0.14,-0.75 0.35,-1.48 1.1,-1.64 0.83,-0.18 1.4,-0.32 1.9,-0.44 1.24,-0.3 1.92,-0.47 4.13,-0.63 0.43,-0.03 0.82,0.14 1.1,0.42 z"
   id="path4940"
   
   style="fill:#2970ff" />
		</g>
		<g
   id="g4946">
			<path
   class="st1"
   d="m 650.54,889.27 c 0.32,0.32 0.48,0.78 0.39,1.26 -0.14,0.77 -0.88,1.28 -1.65,1.13 l -7.48,-1.39 c -0.06,0.23 -0.11,0.44 -0.15,0.63 -0.28,1.16 -0.41,1.69 -0.55,3.67 -0.06,0.78 -0.73,1.37 -1.51,1.31 -0.78,-0.06 -1.37,-0.73 -1.31,-1.51 0.16,-2.21 0.33,-2.89 0.63,-4.13 0.12,-0.5 0.26,-1.07 0.44,-1.9 0.16,-0.75 0.89,-1.24 1.64,-1.1 l 8.82,1.64 c 0.28,0.05 0.53,0.19 0.73,0.39 z"
   id="path4944"
   
   style="fill:#2970ff" />
		</g>
		<g
   id="g4950">
			<path
   class="st1"
   d="m 650.87,875.13 c 0.04,0.04 0.07,0.08 0.11,0.12 0.49,0.61 0.39,1.5 -0.22,1.99 -1.48,1.18 -1.98,1.75 -2.81,2.69 -0.18,0.21 -0.38,0.43 -0.6,0.67 l 5.39,5.38 c 0,0 0,0 0,0 0.55,0.55 0.55,1.45 0,2 -0.55,0.55 -1.45,0.55 -2,0 l -6.35,-6.34 c -0.54,-0.54 -0.55,-1.42 -0.03,-1.97 0.63,-0.66 1.07,-1.17 1.46,-1.61 0.86,-0.99 1.49,-1.7 3.17,-3.04 0.56,-0.44 1.37,-0.39 1.88,0.11 z"
   id="path4948"
   
   style="fill:#2970ff" />
		</g>
	</g>
</g>
<g
   id="g4988"
   transform="translate(-47.449104,-68.409798)">
	<g
   id="g4958">
		<circle
   class="st1"
   cx="438.75"
   cy="669.25"
   r="14.05"
   id="circle4956"
   style="fill:#2970ff" />
	</g>
	<g
   id="g4972">
		<g
   id="g4962">
			<path
   class="st1"
   d="m 461.22,665.23 c 0.28,0.28 0.44,0.68 0.41,1.1 -0.16,2.21 -0.33,2.89 -0.63,4.13 -0.12,0.5 -0.26,1.07 -0.44,1.9 -0.16,0.75 -0.89,1.24 -1.64,1.1 l -8.82,-1.64 c -0.77,-0.14 -1.28,-0.88 -1.13,-1.65 0.14,-0.77 0.88,-1.28 1.65,-1.13 l 7.48,1.39 c 0.06,-0.23 0.11,-0.44 0.15,-0.63 0.28,-1.16 0.41,-1.69 0.55,-3.67 0.06,-0.78 0.73,-1.37 1.51,-1.31 0.37,0.02 0.68,0.18 0.91,0.41 z"
   id="path4960"
   
   style="fill:#2970ff" />
		</g>
		<g
   id="g4966">
			<path
   class="st1"
   d="m 444.13,676.66 c 0.2,0.2 0.34,0.45 0.39,0.74 l 1.64,8.82 c 0.14,0.75 -0.35,1.48 -1.1,1.64 -0.83,0.18 -1.4,0.32 -1.9,0.44 -1.24,0.3 -1.92,0.47 -4.13,0.63 -0.78,0.06 -1.46,-0.53 -1.51,-1.31 -0.06,-0.78 0.53,-1.46 1.31,-1.51 1.97,-0.14 2.51,-0.27 3.67,-0.55 0.19,-0.05 0.4,-0.1 0.63,-0.15 l -1.39,-7.48 c -0.14,-0.77 0.36,-1.51 1.13,-1.65 0.48,-0.1 0.94,0.06 1.26,0.38 z"
   id="path4964"
   
   style="fill:#2970ff" />
		</g>
		<g
   id="g4970">
			<path
   class="st1"
   d="m 458.26,676.33 c 0.5,0.5 0.56,1.31 0.1,1.88 -1.34,1.68 -2.05,2.3 -3.04,3.17 -0.44,0.39 -0.94,0.83 -1.61,1.46 -0.56,0.53 -1.43,0.51 -1.97,-0.03 0,0 0,0 0,0 l -6.34,-6.35 c -0.55,-0.55 -0.55,-1.45 0,-2 0.55,-0.55 1.45,-0.55 2,0 0,0 0,0 0,0 l 5.38,5.39 c 0.24,-0.22 0.47,-0.41 0.67,-0.6 0.94,-0.82 1.51,-1.32 2.69,-2.81 0.49,-0.61 1.38,-0.71 1.99,-0.22 0.06,0.04 0.1,0.08 0.13,0.11 z"
   id="path4968"
   
   style="fill:#2970ff" />
		</g>
	</g>
	<g
   id="g4986">
		<g
   id="g4976">
			<path
   class="st1"
   d="m 442.57,646.98 c 0.23,0.23 0.39,0.55 0.41,0.9 0.06,0.78 -0.53,1.46 -1.31,1.51 -1.97,0.14 -2.51,0.27 -3.67,0.55 -0.19,0.05 -0.4,0.1 -0.63,0.15 l 1.39,7.48 c 0.14,0.77 -0.36,1.51 -1.13,1.65 -0.77,0.14 -1.51,-0.37 -1.65,-1.13 l -1.64,-8.82 c -0.14,-0.75 0.35,-1.48 1.1,-1.64 0.83,-0.18 1.4,-0.32 1.9,-0.44 1.24,-0.3 1.92,-0.47 4.13,-0.63 0.43,-0.02 0.82,0.14 1.1,0.42 z"
   id="path4974"
   
   style="fill:#2970ff" />
		</g>
		<g
   id="g4980">
			<path
   class="st1"
   d="m 431.14,664.07 c 0.32,0.32 0.48,0.78 0.39,1.26 -0.14,0.77 -0.88,1.28 -1.65,1.13 l -7.48,-1.39 c -0.06,0.23 -0.11,0.44 -0.15,0.63 -0.28,1.16 -0.41,1.69 -0.55,3.67 -0.06,0.78 -0.73,1.37 -1.51,1.31 -0.78,-0.06 -1.37,-0.73 -1.31,-1.51 0.16,-2.21 0.33,-2.89 0.63,-4.13 0.12,-0.5 0.26,-1.07 0.44,-1.9 0.16,-0.75 0.89,-1.24 1.64,-1.1 l 8.82,1.64 c 0.28,0.06 0.53,0.2 0.73,0.39 z"
   id="path4978"
   
   style="fill:#2970ff" />
		</g>
		<g
   id="g4984">
			<path
   class="st1"
   d="m 431.47,649.94 c 0.04,0.04 0.07,0.08 0.11,0.12 0.49,0.61 0.39,1.5 -0.22,1.99 -1.48,1.18 -1.98,1.75 -2.81,2.69 -0.18,0.21 -0.38,0.43 -0.6,0.67 l 5.39,5.38 c 0,0 0,0 0,0 0.55,0.55 0.55,1.45 0,2 -0.55,0.55 -1.45,0.55 -2,0 l -6.35,-6.34 c -0.54,-0.54 -0.55,-1.42 -0.03,-1.97 0.63,-0.66 1.07,-1.17 1.46,-1.61 0.86,-0.99 1.49,-1.7 3.17,-3.04 0.56,-0.45 1.37,-0.4 1.88,0.11 z"
   id="path4982"
   
   style="fill:#2970ff" />
		</g>
	</g>
</g>
<g
   id="g5022"
   transform="translate(-47.449104,-68.409798)">
	<g
   id="g4992">
		<circle
   class="st1"
   cx="170.11"
   cy="654.40997"
   r="14.05"
   id="circle4990"
   style="fill:#2970ff" />
	</g>
	<g
   id="g5006">
		<g
   id="g4996">
			<path
   class="st1"
   d="m 192.58,650.39 c 0.28,0.28 0.44,0.68 0.41,1.1 -0.16,2.21 -0.33,2.89 -0.63,4.13 -0.12,0.5 -0.26,1.07 -0.44,1.9 -0.16,0.75 -0.89,1.24 -1.64,1.1 l -8.82,-1.64 c -0.77,-0.14 -1.28,-0.88 -1.13,-1.65 0.14,-0.77 0.88,-1.28 1.65,-1.13 l 7.48,1.39 c 0.06,-0.23 0.11,-0.44 0.15,-0.63 0.28,-1.16 0.41,-1.69 0.55,-3.67 0.06,-0.78 0.73,-1.37 1.51,-1.31 0.36,0.02 0.68,0.17 0.91,0.41 z"
   id="path4994"
   
   style="fill:#2970ff" />
		</g>
		<g
   id="g5000">
			<path
   class="st1"
   d="m 175.49,661.82 c 0.2,0.2 0.34,0.45 0.39,0.74 l 1.64,8.82 c 0.14,0.75 -0.35,1.48 -1.1,1.64 -0.83,0.18 -1.4,0.32 -1.9,0.44 -1.24,0.3 -1.92,0.47 -4.13,0.63 -0.78,0.06 -1.46,-0.53 -1.51,-1.31 -0.06,-0.78 0.53,-1.46 1.31,-1.51 1.97,-0.14 2.51,-0.27 3.67,-0.55 0.19,-0.05 0.4,-0.1 0.63,-0.15 l -1.39,-7.48 c -0.14,-0.77 0.36,-1.51 1.13,-1.65 0.47,-0.1 0.94,0.06 1.26,0.38 z"
   id="path4998"
   
   style="fill:#2970ff" />
		</g>
		<g
   id="g5004">
			<path
   class="st1"
   d="m 189.62,661.49 c 0.5,0.5 0.56,1.31 0.1,1.88 -1.34,1.68 -2.05,2.3 -3.04,3.17 -0.44,0.39 -0.94,0.83 -1.61,1.46 -0.56,0.53 -1.43,0.51 -1.97,-0.03 0,0 0,0 0,0 l -6.34,-6.35 c -0.55,-0.55 -0.55,-1.45 0,-2 0.55,-0.55 1.45,-0.55 2,0 0,0 0,0 0,0 l 5.38,5.39 c 0.24,-0.22 0.47,-0.41 0.67,-0.6 0.94,-0.82 1.51,-1.32 2.69,-2.81 0.49,-0.61 1.38,-0.71 1.99,-0.22 0.05,0.04 0.09,0.08 0.13,0.11 z"
   id="path5002"
   
   style="fill:#2970ff" />
		</g>
	</g>
	<g
   id="g5020">
		<g
   id="g5010">
			<path
   class="st1"
   d="m 173.93,632.14 c 0.23,0.23 0.39,0.55 0.41,0.9 0.06,0.78 -0.53,1.46 -1.31,1.51 -1.97,0.14 -2.51,0.27 -3.67,0.55 -0.19,0.05 -0.4,0.1 -0.63,0.15 l 1.39,7.48 c 0.14,0.77 -0.36,1.51 -1.13,1.65 -0.77,0.14 -1.51,-0.37 -1.65,-1.13 l -1.64,-8.82 c -0.14,-0.75 0.35,-1.48 1.1,-1.64 0.83,-0.18 1.4,-0.32 1.9,-0.44 1.24,-0.3 1.92,-0.47 4.13,-0.63 0.43,-0.02 0.82,0.14 1.1,0.42 z"
   id="path5008"
   
   style="fill:#2970ff" />
		</g>
		<g
   id="g5014">
			<path
   class="st1"
   d="m 162.5,649.23 c 0.32,0.32 0.48,0.78 0.39,1.26 -0.14,0.77 -0.88,1.28 -1.65,1.13 l -7.48,-1.39 c -0.06,0.23 -0.11,0.44 -0.15,0.63 -0.28,1.16 -0.41,1.69 -0.55,3.67 -0.06,0.78 -0.73,1.37 -1.51,1.31 -0.78,-0.06 -1.37,-0.73 -1.31,-1.51 0.16,-2.21 0.33,-2.89 0.63,-4.13 0.12,-0.5 0.26,-1.07 0.44,-1.9 0.16,-0.75 0.89,-1.24 1.64,-1.1 l 8.82,1.64 c 0.28,0.05 0.53,0.19 0.73,0.39 z"
   id="path5012"
   
   style="fill:#2970ff" />
		</g>
		<g
   id="g5018">
			<path
   class="st1"
   d="m 162.82,635.1 c 0.04,0.04 0.07,0.08 0.11,0.12 0.49,0.61 0.39,1.5 -0.22,1.99 -1.48,1.18 -1.98,1.75 -2.81,2.69 -0.18,0.21 -0.38,0.43 -0.6,0.67 l 5.39,5.38 c 0,0 0,0 0,0 0.55,0.55 0.55,1.45 0,2 -0.55,0.55 -1.45,0.55 -2,0 l -6.35,-6.34 c -0.54,-0.54 -0.55,-1.42 -0.03,-1.97 0.63,-0.66 1.07,-1.17 1.46,-1.61 0.86,-0.99 1.49,-1.7 3.17,-3.04 0.57,-0.45 1.38,-0.4 1.88,0.11 z"
   id="path5016"
   
   style="fill:#2970ff" />
		</g>
	</g>
</g>
<g
   id="g5056"
   transform="translate(-47.449104,-68.409798)">
	<g
   id="g5026">
		<circle
   class="st1"
   cx="837.16998"
   cy="592.57001"
   r="14.05"
   id="circle5024"
   style="fill:#2970ff" />
	</g>
	<g
   id="g5040">
		<g
   id="g5030">
			<path
   class="st1"
   d="m 859.64,588.55 c 0.28,0.28 0.44,0.68 0.41,1.1 -0.16,2.21 -0.33,2.89 -0.63,4.13 -0.12,0.5 -0.26,1.07 -0.44,1.9 -0.16,0.75 -0.89,1.24 -1.64,1.1 l -8.82,-1.64 c -0.77,-0.14 -1.28,-0.88 -1.13,-1.65 0.14,-0.77 0.88,-1.28 1.65,-1.13 l 7.48,1.39 c 0.06,-0.23 0.11,-0.44 0.15,-0.63 0.28,-1.16 0.41,-1.69 0.55,-3.67 0.06,-0.78 0.73,-1.37 1.51,-1.31 0.37,0.02 0.68,0.18 0.91,0.41 z"
   id="path5028"
   
   style="fill:#2970ff" />
		</g>
		<g
   id="g5034">
			<path
   class="st1"
   d="m 842.55,599.99 c 0.2,0.2 0.34,0.45 0.39,0.74 l 1.64,8.82 c 0.14,0.75 -0.35,1.48 -1.1,1.64 -0.83,0.18 -1.4,0.32 -1.9,0.44 -1.24,0.3 -1.92,0.47 -4.13,0.63 -0.78,0.06 -1.46,-0.53 -1.51,-1.31 -0.06,-0.78 0.53,-1.46 1.31,-1.51 1.97,-0.14 2.51,-0.27 3.67,-0.55 0.19,-0.05 0.4,-0.1 0.63,-0.15 l -1.39,-7.48 c -0.14,-0.77 0.36,-1.51 1.13,-1.65 0.48,-0.11 0.94,0.06 1.26,0.38 z"
   id="path5032"
   
   style="fill:#2970ff" />
		</g>
		<g
   id="g5038">
			<path
   class="st1"
   d="m 856.69,599.66 c 0.5,0.5 0.56,1.31 0.1,1.88 -1.34,1.68 -2.05,2.3 -3.04,3.17 -0.44,0.39 -0.94,0.83 -1.61,1.46 -0.56,0.53 -1.43,0.51 -1.97,-0.03 0,0 0,0 0,0 l -6.34,-6.35 c -0.55,-0.55 -0.55,-1.45 0,-2 0.55,-0.55 1.45,-0.55 2,0 0,0 0,0 0,0 l 5.38,5.39 c 0.24,-0.22 0.47,-0.41 0.67,-0.6 0.94,-0.82 1.51,-1.32 2.69,-2.81 0.49,-0.61 1.38,-0.71 1.99,-0.22 0.05,0.03 0.09,0.07 0.13,0.11 z"
   id="path5036"
   
   style="fill:#2970ff" />
		</g>
	</g>
	<g
   id="g5054">
		<g
   id="g5044">
			<path
   class="st1"
   d="m 841,570.3 c 0.23,0.23 0.39,0.55 0.41,0.9 0.06,0.78 -0.53,1.46 -1.31,1.51 -1.97,0.14 -2.51,0.27 -3.67,0.55 -0.19,0.05 -0.4,0.1 -0.63,0.15 l 1.39,7.48 c 0.14,0.77 -0.36,1.51 -1.13,1.65 -0.77,0.14 -1.51,-0.37 -1.65,-1.13 l -1.64,-8.82 c -0.14,-0.75 0.35,-1.48 1.1,-1.64 0.83,-0.18 1.4,-0.32 1.9,-0.44 1.24,-0.3 1.92,-0.47 4.13,-0.63 0.42,-0.02 0.82,0.14 1.1,0.42 z"
   id="path5042"
   
   style="fill:#2970ff" />
		</g>
		<g
   id="g5048">
			<path
   class="st1"
   d="m 829.56,587.39 c 0.32,0.32 0.48,0.78 0.39,1.26 -0.14,0.77 -0.88,1.28 -1.65,1.13 l -7.48,-1.39 c -0.06,0.23 -0.11,0.44 -0.15,0.63 -0.28,1.16 -0.41,1.69 -0.55,3.67 -0.06,0.78 -0.73,1.37 -1.51,1.31 -0.78,-0.06 -1.37,-0.73 -1.31,-1.51 0.16,-2.21 0.33,-2.89 0.63,-4.13 0.12,-0.5 0.26,-1.07 0.44,-1.9 0.16,-0.75 0.89,-1.24 1.64,-1.1 l 8.82,1.64 c 0.28,0.06 0.54,0.2 0.73,0.39 z"
   id="path5046"
   
   style="fill:#2970ff" />
		</g>
		<g
   id="g5052">
			<path
   class="st1"
   d="m 829.89,573.26 c 0.04,0.04 0.07,0.08 0.11,0.12 0.49,0.61 0.39,1.5 -0.22,1.99 -1.48,1.18 -1.98,1.75 -2.81,2.69 -0.18,0.21 -0.38,0.43 -0.6,0.67 l 5.39,5.38 c 0,0 0,0 0,0 0.55,0.55 0.55,1.45 0,2 -0.55,0.55 -1.45,0.55 -2,0 l -6.35,-6.34 c -0.54,-0.54 -0.55,-1.42 -0.03,-1.97 0.63,-0.66 1.07,-1.17 1.46,-1.61 0.86,-0.98 1.49,-1.7 3.17,-3.04 0.57,-0.45 1.38,-0.39 1.88,0.11 z"
   id="path5050"
   
   style="fill:#2970ff" />
		</g>
	</g>
</g>
<g
   id="g5090"
   transform="translate(-47.449104,-68.409798)">
	<g
   id="g5060">
		<circle
   class="st1"
   cx="308.95999"
   cy="603.96002"
   r="14.05"
   id="circle5058"
   style="fill:#2970ff" />
	</g>
	<g
   id="g5074">
		<g
   id="g5064">
			<path
   class="st1"
   d="m 331.43,599.93 c 0.28,0.28 0.44,0.68 0.41,1.1 -0.16,2.21 -0.33,2.89 -0.63,4.13 -0.12,0.5 -0.26,1.07 -0.44,1.9 -0.16,0.75 -0.89,1.24 -1.64,1.1 l -8.82,-1.64 c -0.77,-0.14 -1.28,-0.88 -1.13,-1.65 0.14,-0.77 0.88,-1.28 1.65,-1.13 l 7.48,1.39 c 0.06,-0.23 0.11,-0.44 0.15,-0.63 0.28,-1.16 0.41,-1.69 0.55,-3.67 0.06,-0.78 0.73,-1.37 1.51,-1.31 0.37,0.03 0.68,0.18 0.91,0.41 z"
   id="path5062"
   
   style="fill:#2970ff" />
		</g>
		<g
   id="g5068">
			<path
   class="st1"
   d="m 314.34,611.37 c 0.2,0.2 0.34,0.45 0.39,0.74 l 1.64,8.82 c 0.14,0.75 -0.35,1.48 -1.1,1.64 -0.83,0.18 -1.4,0.32 -1.9,0.44 -1.24,0.3 -1.92,0.47 -4.13,0.63 -0.78,0.06 -1.46,-0.53 -1.51,-1.31 -0.06,-0.78 0.53,-1.46 1.31,-1.51 1.98,-0.14 2.51,-0.27 3.67,-0.55 0.19,-0.05 0.4,-0.1 0.63,-0.15 l -1.39,-7.48 c -0.14,-0.77 0.36,-1.51 1.13,-1.65 0.48,-0.1 0.94,0.06 1.26,0.38 z"
   id="path5066"
   
   style="fill:#2970ff" />
		</g>
		<g
   id="g5072">
			<path
   class="st1"
   d="m 328.47,611.04 c 0.5,0.5 0.56,1.31 0.1,1.88 -1.34,1.68 -2.05,2.3 -3.04,3.17 -0.44,0.39 -0.94,0.83 -1.61,1.46 -0.56,0.53 -1.43,0.51 -1.97,-0.03 0,0 0,0 0,0 l -6.34,-6.35 c -0.55,-0.55 -0.55,-1.45 0,-2 0.55,-0.55 1.45,-0.55 2,0 0,0 0,0 0,0 l 5.38,5.39 c 0.24,-0.22 0.47,-0.41 0.67,-0.6 0.94,-0.82 1.51,-1.32 2.69,-2.81 0.49,-0.61 1.38,-0.71 1.99,-0.22 0.06,0.04 0.1,0.07 0.13,0.11 z"
   id="path5070"
   
   style="fill:#2970ff" />
		</g>
	</g>
	<g
   id="g5088">
		<g
   id="g5078">
			<path
   class="st1"
   d="m 312.78,581.69 c 0.23,0.23 0.39,0.55 0.41,0.9 0.06,0.78 -0.53,1.46 -1.31,1.51 -1.97,0.14 -2.51,0.27 -3.67,0.55 -0.19,0.05 -0.4,0.1 -0.63,0.15 l 1.39,7.48 c 0.14,0.77 -0.36,1.51 -1.13,1.65 -0.77,0.14 -1.51,-0.37 -1.65,-1.13 l -1.64,-8.82 c -0.14,-0.75 0.35,-1.48 1.1,-1.64 0.83,-0.18 1.4,-0.32 1.9,-0.44 1.24,-0.3 1.92,-0.47 4.13,-0.63 0.43,-0.03 0.82,0.14 1.1,0.42 z"
   id="path5076"
   
   style="fill:#2970ff" />
		</g>
		<g
   id="g5082">
			<path
   class="st1"
   d="m 301.35,598.78 c 0.32,0.32 0.48,0.78 0.39,1.26 -0.14,0.77 -0.88,1.28 -1.65,1.13 l -7.48,-1.39 c -0.06,0.23 -0.11,0.44 -0.15,0.63 -0.28,1.16 -0.41,1.69 -0.55,3.67 -0.06,0.78 -0.73,1.37 -1.51,1.31 -0.78,-0.06 -1.37,-0.73 -1.31,-1.51 0.16,-2.21 0.33,-2.89 0.63,-4.13 0.12,-0.5 0.26,-1.07 0.44,-1.9 0.16,-0.75 0.89,-1.24 1.64,-1.1 l 8.82,1.64 c 0.28,0.05 0.53,0.19 0.73,0.39 z"
   id="path5080"
   
   style="fill:#2970ff" />
		</g>
		<g
   id="g5086">
			<path
   class="st1"
   d="m 301.68,584.64 c 0.04,0.04 0.07,0.08 0.11,0.12 0.49,0.61 0.39,1.5 -0.22,1.99 -1.48,1.18 -1.98,1.75 -2.81,2.69 -0.18,0.21 -0.38,0.43 -0.6,0.67 l 5.39,5.38 c 0,0 0,0 0,0 0.55,0.55 0.55,1.45 0,2 -0.55,0.55 -1.45,0.55 -2,0 l -6.35,-6.34 c -0.54,-0.54 -0.55,-1.42 -0.03,-1.97 0.63,-0.66 1.07,-1.17 1.46,-1.61 0.86,-0.99 1.49,-1.7 3.17,-3.04 0.56,-0.44 1.37,-0.39 1.88,0.11 z"
   id="path5084"
   
   style="fill:#2970ff" />
		</g>
	</g>
</g>

<g
   id="g5158"
   transform="translate(-115.33136,-65.581371)">
	<g
   id="g5128">
		<circle
   class="st1"
   cx="967.16998"
   cy="189.77"
   r="14.05"
   id="circle5126"
   style="fill:#2970ff" />
	</g>
	<g
   id="g5142">
		<g
   id="g5132">
			<path
   class="st1"
   d="m 944.7,193.8 c -0.28,-0.28 -0.44,-0.68 -0.41,-1.1 0.16,-2.21 0.33,-2.89 0.63,-4.13 0.12,-0.5 0.26,-1.07 0.44,-1.9 0.16,-0.75 0.89,-1.24 1.64,-1.1 l 8.82,1.64 c 0.77,0.14 1.28,0.88 1.13,1.65 -0.14,0.77 -0.88,1.28 -1.65,1.13 l -7.48,-1.39 c -0.06,0.23 -0.11,0.44 -0.15,0.63 -0.28,1.16 -0.41,1.69 -0.55,3.67 -0.06,0.78 -0.73,1.37 -1.51,1.31 -0.37,-0.03 -0.68,-0.18 -0.91,-0.41 z"
   id="path5130"
   
   style="fill:#2970ff" />
		</g>
		<g
   id="g5136">
			<path
   class="st1"
   d="m 961.79,182.36 c -0.2,-0.2 -0.34,-0.45 -0.39,-0.74 l -1.64,-8.82 c -0.14,-0.75 0.35,-1.48 1.1,-1.64 0.83,-0.18 1.4,-0.32 1.9,-0.44 1.24,-0.3 1.92,-0.47 4.13,-0.63 0.78,-0.06 1.46,0.53 1.51,1.31 0.06,0.78 -0.53,1.46 -1.31,1.51 -1.98,0.14 -2.51,0.27 -3.67,0.55 -0.19,0.05 -0.4,0.1 -0.63,0.15 l 1.39,7.48 c 0.14,0.77 -0.36,1.51 -1.13,1.65 -0.48,0.1 -0.94,-0.06 -1.26,-0.38 z"
   id="path5134"
   
   style="fill:#2970ff" />
		</g>
		<g
   id="g5140">
			<path
   class="st1"
   d="m 947.66,182.69 c -0.5,-0.5 -0.56,-1.31 -0.1,-1.88 1.34,-1.68 2.05,-2.3 3.04,-3.17 0.44,-0.39 0.94,-0.83 1.61,-1.46 0.56,-0.53 1.43,-0.51 1.97,0.03 0,0 0,0 0,0 l 6.34,6.35 c 0.55,0.55 0.55,1.45 0,2 -0.55,0.55 -1.45,0.55 -2,0 0,0 0,0 0,0 l -5.38,-5.39 c -0.24,0.22 -0.47,0.41 -0.67,0.6 -0.94,0.82 -1.51,1.32 -2.69,2.81 -0.49,0.61 -1.38,0.71 -1.99,0.22 -0.06,-0.04 -0.1,-0.07 -0.13,-0.11 z"
   id="path5138"
   
   style="fill:#2970ff" />
		</g>
	</g>
	<g
   id="g5156">
		<g
   id="g5146">
			<path
   class="st1"
   d="m 963.34,212.04 c -0.23,-0.23 -0.39,-0.55 -0.41,-0.9 -0.06,-0.78 0.53,-1.46 1.31,-1.51 1.97,-0.14 2.51,-0.27 3.67,-0.55 0.19,-0.05 0.4,-0.1 0.63,-0.15 l -1.39,-7.48 c -0.14,-0.77 0.36,-1.51 1.13,-1.65 0.77,-0.14 1.51,0.37 1.65,1.13 l 1.64,8.82 c 0.14,0.75 -0.35,1.48 -1.1,1.64 -0.83,0.18 -1.4,0.32 -1.9,0.44 -1.24,0.3 -1.92,0.47 -4.13,0.63 -0.42,0.03 -0.81,-0.13 -1.1,-0.42 z"
   id="path5144"
   
   style="fill:#2970ff" />
		</g>
		<g
   id="g5150">
			<path
   class="st1"
   d="m 974.78,194.95 c -0.32,-0.32 -0.48,-0.78 -0.39,-1.26 0.14,-0.77 0.88,-1.28 1.65,-1.13 l 7.48,1.39 c 0.06,-0.23 0.11,-0.44 0.15,-0.63 0.28,-1.16 0.41,-1.69 0.55,-3.67 0.06,-0.78 0.73,-1.37 1.51,-1.31 0.78,0.06 1.37,0.73 1.31,1.51 -0.16,2.21 -0.33,2.89 -0.63,4.13 -0.12,0.5 -0.26,1.07 -0.44,1.9 -0.16,0.75 -0.89,1.24 -1.64,1.1 l -8.82,-1.64 c -0.28,-0.05 -0.53,-0.19 -0.73,-0.39 z"
   id="path5148"
   
   style="fill:#2970ff" />
		</g>
		<g
   id="g5154">
			<path
   class="st1"
   d="m 974.45,209.09 c -0.04,-0.04 -0.07,-0.08 -0.11,-0.12 -0.49,-0.61 -0.39,-1.5 0.22,-1.99 1.48,-1.18 1.98,-1.75 2.81,-2.69 0.18,-0.21 0.38,-0.43 0.6,-0.67 l -5.39,-5.38 c 0,0 0,0 0,0 -0.55,-0.55 -0.55,-1.45 0,-2 0.55,-0.55 1.45,-0.55 2,0 l 6.35,6.34 c 0.54,0.54 0.55,1.42 0.03,1.97 -0.63,0.66 -1.07,1.17 -1.46,1.61 -0.86,0.99 -1.49,1.7 -3.17,3.04 -0.56,0.45 -1.37,0.39 -1.88,-0.11 z"
   id="path5152"
   
   style="fill:#2970ff" />
		</g>
	</g>
</g>
<g
   id="g5192"
   transform="translate(-47.449104,-68.409798)">
	<g
   id="g5162">
		<circle
   class="st1"
   cx="210.62"
   cy="168.59"
   r="14.05"
   id="circle5160"
   style="fill:#2970ff" />
	</g>
	<g
   id="g5176">
		<g
   id="g5166">
			<path
   class="st1"
   d="m 188.15,172.61 c -0.28,-0.28 -0.44,-0.68 -0.41,-1.1 0.16,-2.21 0.33,-2.89 0.63,-4.13 0.12,-0.5 0.26,-1.07 0.44,-1.9 0.16,-0.75 0.89,-1.24 1.64,-1.1 l 8.82,1.64 c 0.77,0.14 1.28,0.88 1.13,1.65 -0.14,0.77 -0.88,1.28 -1.65,1.13 l -7.48,-1.39 c -0.06,0.23 -0.11,0.44 -0.15,0.63 -0.28,1.16 -0.41,1.69 -0.55,3.67 -0.06,0.78 -0.73,1.37 -1.51,1.31 -0.37,-0.02 -0.68,-0.18 -0.91,-0.41 z"
   id="path5164"
   
   style="fill:#2970ff" />
		</g>
		<g
   id="g5170">
			<path
   class="st1"
   d="m 205.24,161.17 c -0.2,-0.2 -0.34,-0.45 -0.39,-0.74 l -1.64,-8.82 c -0.14,-0.75 0.35,-1.48 1.1,-1.64 0.83,-0.18 1.4,-0.32 1.9,-0.44 1.24,-0.3 1.92,-0.47 4.13,-0.63 0.78,-0.06 1.46,0.53 1.51,1.31 0.06,0.78 -0.53,1.46 -1.31,1.51 -1.97,0.14 -2.51,0.27 -3.67,0.55 -0.19,0.05 -0.4,0.1 -0.63,0.15 l 1.39,7.48 c 0.14,0.77 -0.36,1.51 -1.13,1.65 -0.48,0.1 -0.94,-0.06 -1.26,-0.38 z"
   id="path5168"
   
   style="fill:#2970ff" />
		</g>
		<g
   id="g5174">
			<path
   class="st1"
   d="m 191.1,161.5 c -0.5,-0.5 -0.56,-1.31 -0.1,-1.88 1.34,-1.68 2.05,-2.3 3.04,-3.17 0.44,-0.39 0.94,-0.83 1.61,-1.46 0.56,-0.53 1.43,-0.51 1.97,0.03 0,0 0,0 0,0 l 6.34,6.35 c 0.55,0.55 0.55,1.45 0,2 -0.55,0.55 -1.45,0.55 -2,0 0,0 0,0 0,0 l -5.38,-5.39 c -0.24,0.22 -0.47,0.41 -0.67,0.6 -0.94,0.82 -1.51,1.32 -2.69,2.81 -0.49,0.61 -1.38,0.71 -1.99,0.22 -0.05,-0.03 -0.09,-0.07 -0.13,-0.11 z"
   id="path5172"
   
   style="fill:#2970ff" />
		</g>
	</g>
	<g
   id="g5190">
		<g
   id="g5180">
			<path
   class="st1"
   d="m 206.79,190.86 c -0.23,-0.23 -0.39,-0.55 -0.41,-0.9 -0.06,-0.78 0.53,-1.46 1.31,-1.51 1.97,-0.14 2.51,-0.27 3.67,-0.55 0.19,-0.05 0.4,-0.1 0.63,-0.15 l -1.39,-7.48 c -0.14,-0.77 0.36,-1.51 1.13,-1.65 0.77,-0.14 1.51,0.37 1.65,1.13 l 1.64,8.82 c 0.14,0.75 -0.35,1.48 -1.1,1.64 -0.83,0.18 -1.4,0.32 -1.9,0.44 -1.24,0.3 -1.92,0.47 -4.13,0.63 -0.42,0.02 -0.82,-0.14 -1.1,-0.42 z"
   id="path5178"
   
   style="fill:#2970ff" />
		</g>
		<g
   id="g5184">
			<path
   class="st1"
   d="m 218.23,173.77 c -0.32,-0.32 -0.48,-0.78 -0.39,-1.26 0.14,-0.77 0.88,-1.28 1.65,-1.13 l 7.48,1.39 c 0.06,-0.23 0.11,-0.44 0.15,-0.63 0.28,-1.16 0.41,-1.69 0.55,-3.67 0.06,-0.78 0.73,-1.37 1.51,-1.31 0.78,0.06 1.37,0.73 1.31,1.51 -0.16,2.21 -0.33,2.89 -0.63,4.13 -0.12,0.5 -0.26,1.07 -0.44,1.9 -0.16,0.75 -0.89,1.24 -1.64,1.1 l -8.82,-1.64 c -0.28,-0.06 -0.54,-0.2 -0.73,-0.39 z"
   id="path5182"
   
   style="fill:#2970ff" />
		</g>
		<g
   id="g5188">
			<path
   class="st1"
   d="m 217.9,187.9 c -0.04,-0.04 -0.07,-0.08 -0.11,-0.12 -0.49,-0.61 -0.39,-1.5 0.22,-1.99 1.48,-1.18 1.98,-1.75 2.81,-2.69 0.18,-0.21 0.38,-0.43 0.6,-0.67 l -5.39,-5.38 c 0,0 0,0 0,0 -0.55,-0.55 -0.55,-1.45 0,-2 0.55,-0.55 1.45,-0.55 2,0 l 6.35,6.34 c 0.54,0.54 0.55,1.42 0.03,1.97 -0.63,0.66 -1.07,1.17 -1.46,1.61 -0.86,0.99 -1.49,1.7 -3.17,3.04 -0.57,0.45 -1.38,0.39 -1.88,-0.11 z"
   id="path5186"
   
   style="fill:#2970ff" />
		</g>
	</g>
</g>
<g
   id="g5226"
   transform="translate(-47.449104,-68.409798)">
	<g
   id="g5196">
		<circle
   class="st1"
   cx="392.47"
   cy="738.07001"
   r="14.05"
   id="circle5194"
   style="fill:#2970ff" />
	</g>
	<g
   id="g5210">
		<g
   id="g5200">
			<path
   class="st1"
   d="m 370,742.1 c -0.28,-0.28 -0.44,-0.68 -0.41,-1.1 0.16,-2.21 0.33,-2.89 0.63,-4.13 0.12,-0.5 0.26,-1.07 0.44,-1.9 0.16,-0.75 0.89,-1.24 1.64,-1.1 l 8.82,1.64 c 0.77,0.14 1.28,0.88 1.13,1.65 -0.14,0.77 -0.88,1.28 -1.65,1.13 l -7.48,-1.39 c -0.06,0.23 -0.11,0.44 -0.15,0.63 -0.28,1.16 -0.41,1.69 -0.55,3.67 -0.06,0.78 -0.73,1.37 -1.51,1.31 -0.37,-0.03 -0.68,-0.18 -0.91,-0.41 z"
   id="path5198"
   
   style="fill:#2970ff" />
		</g>
		<g
   id="g5204">
			<path
   class="st1"
   d="m 387.09,730.66 c -0.2,-0.2 -0.34,-0.45 -0.39,-0.74 l -1.64,-8.82 c -0.14,-0.75 0.35,-1.48 1.1,-1.64 0.83,-0.18 1.4,-0.32 1.9,-0.44 1.24,-0.3 1.92,-0.47 4.13,-0.63 0.78,-0.06 1.46,0.53 1.51,1.31 0.06,0.78 -0.53,1.46 -1.31,1.51 -1.97,0.14 -2.51,0.27 -3.67,0.55 -0.19,0.05 -0.4,0.1 -0.63,0.15 l 1.39,7.48 c 0.14,0.77 -0.36,1.51 -1.13,1.65 -0.48,0.1 -0.94,-0.06 -1.26,-0.38 z"
   id="path5202"
   
   style="fill:#2970ff" />
		</g>
		<g
   id="g5208">
			<path
   class="st1"
   d="m 372.96,730.99 c -0.5,-0.5 -0.56,-1.31 -0.1,-1.88 1.34,-1.68 2.05,-2.3 3.04,-3.17 0.44,-0.39 0.94,-0.83 1.61,-1.46 0.56,-0.53 1.43,-0.51 1.97,0.03 0,0 0,0 0,0 l 6.34,6.35 c 0.55,0.55 0.55,1.45 0,2 -0.55,0.55 -1.45,0.55 -2,0 0,0 0,0 0,0 l -5.38,-5.39 c -0.24,0.22 -0.47,0.41 -0.67,0.6 -0.94,0.82 -1.51,1.32 -2.69,2.81 -0.49,0.61 -1.38,0.71 -1.99,0.22 -0.06,-0.04 -0.1,-0.07 -0.13,-0.11 z"
   id="path5206"
   
   style="fill:#2970ff" />
		</g>
	</g>
	<g
   id="g5224">
		<g
   id="g5214">
			<path
   class="st1"
   d="m 388.64,760.35 c -0.23,-0.23 -0.39,-0.55 -0.41,-0.9 -0.06,-0.78 0.53,-1.46 1.31,-1.51 1.97,-0.14 2.5,-0.27 3.67,-0.55 0.19,-0.05 0.4,-0.1 0.63,-0.15 l -1.39,-7.48 c -0.14,-0.77 0.36,-1.51 1.13,-1.65 0.77,-0.14 1.51,0.37 1.65,1.13 l 1.64,8.82 c 0.14,0.75 -0.35,1.48 -1.1,1.64 -0.83,0.18 -1.4,0.32 -1.9,0.44 -1.24,0.3 -1.92,0.47 -4.13,0.63 -0.42,0.02 -0.81,-0.14 -1.1,-0.42 z"
   id="path5212"
   
   style="fill:#2970ff" />
		</g>
		<g
   id="g5218">
			<path
   class="st1"
   d="m 400.08,743.26 c -0.32,-0.32 -0.48,-0.78 -0.39,-1.26 0.14,-0.77 0.88,-1.28 1.65,-1.13 l 7.48,1.39 c 0.06,-0.23 0.11,-0.44 0.15,-0.63 0.28,-1.16 0.41,-1.69 0.55,-3.67 0.06,-0.78 0.73,-1.37 1.51,-1.31 0.78,0.06 1.37,0.73 1.31,1.51 -0.16,2.21 -0.33,2.89 -0.63,4.13 -0.12,0.5 -0.26,1.07 -0.44,1.9 -0.16,0.75 -0.89,1.24 -1.64,1.1 l -8.82,-1.64 c -0.28,-0.06 -0.53,-0.2 -0.73,-0.39 z"
   id="path5216"
   
   style="fill:#2970ff" />
		</g>
		<g
   id="g5222">
			<path
   class="st1"
   d="m 399.75,757.39 c -0.04,-0.04 -0.07,-0.08 -0.11,-0.12 -0.49,-0.61 -0.39,-1.5 0.22,-1.99 1.48,-1.18 1.98,-1.75 2.81,-2.69 0.18,-0.21 0.38,-0.43 0.6,-0.67 l -5.39,-5.38 c 0,0 0,0 0,0 -0.55,-0.55 -0.55,-1.45 0,-2 0.55,-0.55 1.45,-0.55 2,0 l 6.35,6.34 c 0.54,0.54 0.55,1.42 0.03,1.97 -0.63,0.66 -1.07,1.17 -1.46,1.61 -0.86,0.99 -1.49,1.7 -3.17,3.04 -0.56,0.45 -1.38,0.39 -1.88,-0.11 z"
   id="path5220"
   
   style="fill:#2970ff" />
		</g>
	</g>
</g>
<g
   id="g5260"
   transform="translate(-47.449104,-68.409798)">
	<g
   id="g5230">
		<circle
   class="st1"
   cx="818.78998"
   cy="368.34"
   r="14.05"
   id="circle5228"
   style="fill:#2970ff" />
	</g>
	<g
   id="g5244">
		<g
   id="g5234">
			<path
   class="st1"
   d="m 796.31,372.36 c -0.28,-0.28 -0.44,-0.68 -0.41,-1.1 0.16,-2.21 0.33,-2.89 0.63,-4.13 0.12,-0.5 0.26,-1.07 0.44,-1.9 0.16,-0.75 0.89,-1.24 1.64,-1.1 l 8.82,1.64 c 0.77,0.14 1.28,0.88 1.13,1.65 -0.14,0.77 -0.88,1.28 -1.65,1.13 l -7.48,-1.39 c -0.06,0.23 -0.11,0.44 -0.15,0.63 -0.28,1.16 -0.41,1.69 -0.55,3.67 -0.06,0.78 -0.73,1.37 -1.51,1.31 -0.36,-0.02 -0.67,-0.18 -0.91,-0.41 z"
   id="path5232"
   
   style="fill:#2970ff" />
		</g>
		<g
   id="g5238">
			<path
   class="st1"
   d="m 813.4,360.92 c -0.2,-0.2 -0.34,-0.45 -0.39,-0.74 l -1.64,-8.82 c -0.14,-0.75 0.35,-1.48 1.1,-1.64 0.83,-0.18 1.4,-0.32 1.9,-0.44 1.24,-0.3 1.92,-0.47 4.13,-0.63 0.78,-0.06 1.46,0.53 1.51,1.31 0.06,0.78 -0.53,1.46 -1.31,1.51 -1.97,0.14 -2.51,0.27 -3.67,0.55 -0.19,0.05 -0.4,0.1 -0.63,0.15 l 1.39,7.48 c 0.14,0.77 -0.36,1.51 -1.13,1.65 -0.47,0.1 -0.94,-0.06 -1.26,-0.38 z"
   id="path5236"
   
   style="fill:#2970ff" />
		</g>
		<g
   id="g5242">
			<path
   class="st1"
   d="m 799.27,361.25 c -0.5,-0.5 -0.56,-1.31 -0.1,-1.88 1.34,-1.68 2.05,-2.3 3.04,-3.17 0.44,-0.39 0.94,-0.83 1.61,-1.46 0.56,-0.53 1.43,-0.51 1.97,0.03 0,0 0,0 0,0 l 6.34,6.35 c 0.55,0.55 0.55,1.45 0,2 -0.55,0.55 -1.45,0.55 -2,0 0,0 0,0 0,0 l -5.38,-5.39 c -0.24,0.22 -0.47,0.41 -0.67,0.6 -0.94,0.82 -1.51,1.32 -2.69,2.81 -0.49,0.61 -1.38,0.71 -1.99,0.22 -0.05,-0.03 -0.09,-0.07 -0.13,-0.11 z"
   id="path5240"
   
   style="fill:#2970ff" />
		</g>
	</g>
	<g
   id="g5258">
		<g
   id="g5248">
			<path
   class="st1"
   d="m 814.96,390.61 c -0.23,-0.23 -0.39,-0.55 -0.41,-0.9 -0.06,-0.78 0.53,-1.46 1.31,-1.51 1.97,-0.14 2.51,-0.27 3.67,-0.55 0.19,-0.05 0.4,-0.1 0.63,-0.15 l -1.39,-7.48 c -0.14,-0.77 0.36,-1.51 1.13,-1.65 0.77,-0.14 1.51,0.37 1.65,1.13 l 1.64,8.82 c 0.14,0.75 -0.35,1.48 -1.1,1.64 -0.83,0.18 -1.4,0.32 -1.9,0.44 -1.24,0.3 -1.92,0.47 -4.13,0.63 -0.42,0.02 -0.82,-0.14 -1.1,-0.42 z"
   id="path5246"
   
   style="fill:#2970ff" />
		</g>
		<g
   id="g5252">
			<path
   class="st1"
   d="m 826.4,373.52 c -0.32,-0.32 -0.48,-0.78 -0.39,-1.26 0.14,-0.77 0.88,-1.28 1.65,-1.13 l 7.48,1.39 c 0.06,-0.23 0.11,-0.44 0.15,-0.63 0.28,-1.16 0.41,-1.69 0.55,-3.67 0.06,-0.78 0.73,-1.37 1.51,-1.31 0.78,0.06 1.37,0.73 1.31,1.51 -0.16,2.21 -0.33,2.89 -0.63,4.13 -0.12,0.5 -0.26,1.07 -0.44,1.9 -0.16,0.75 -0.89,1.24 -1.64,1.1 l -8.82,-1.64 c -0.28,-0.06 -0.54,-0.2 -0.73,-0.39 z"
   id="path5250"
   
   style="fill:#2970ff" />
		</g>
		<g
   id="g5256">
			<path
   class="st1"
   d="m 826.07,387.65 c -0.04,-0.04 -0.07,-0.08 -0.11,-0.12 -0.49,-0.61 -0.39,-1.5 0.22,-1.99 1.48,-1.18 1.98,-1.75 2.81,-2.69 0.18,-0.21 0.38,-0.43 0.6,-0.67 l -5.39,-5.38 c 0,0 0,0 0,0 -0.55,-0.55 -0.55,-1.45 0,-2 0.55,-0.55 1.45,-0.55 2,0 l 6.35,6.34 c 0.54,0.54 0.55,1.42 0.03,1.97 -0.63,0.66 -1.07,1.17 -1.46,1.61 -0.86,0.99 -1.49,1.7 -3.17,3.04 -0.57,0.45 -1.38,0.39 -1.88,-0.11 z"
   id="path5254"
   
   style="fill:#2970ff" />
		</g>
	</g>
</g>
<g
   id="g5294"
   transform="translate(-47.449104,-68.409798)">
	<g
   id="g5264">
		<circle
   class="st1"
   cx="303.26001"
   cy="465.13"
   r="14.05"
   id="circle5262"
   style="fill:#2970ff" />
	</g>
	<g
   id="g5278">
		<g
   id="g5268">
			<path
   class="st1"
   d="m 280.79,469.15 c -0.28,-0.28 -0.44,-0.68 -0.41,-1.1 0.16,-2.21 0.33,-2.89 0.63,-4.13 0.12,-0.5 0.26,-1.07 0.44,-1.9 0.16,-0.75 0.89,-1.24 1.64,-1.1 l 8.82,1.64 c 0.77,0.14 1.28,0.88 1.13,1.65 -0.14,0.77 -0.88,1.28 -1.65,1.13 l -7.48,-1.39 c -0.06,0.23 -0.11,0.44 -0.15,0.63 -0.28,1.16 -0.41,1.69 -0.55,3.67 -0.06,0.78 -0.73,1.37 -1.51,1.31 -0.36,-0.02 -0.68,-0.17 -0.91,-0.41 z"
   id="path5266"
   
   style="fill:#2970ff" />
		</g>
		<g
   id="g5272">
			<path
   class="st1"
   d="m 297.88,457.72 c -0.2,-0.2 -0.34,-0.45 -0.39,-0.74 l -1.64,-8.82 c -0.14,-0.75 0.35,-1.48 1.1,-1.64 0.83,-0.18 1.4,-0.32 1.9,-0.44 1.24,-0.3 1.92,-0.47 4.13,-0.63 0.78,-0.06 1.46,0.53 1.51,1.31 0.06,0.78 -0.53,1.46 -1.31,1.51 -1.98,0.14 -2.51,0.27 -3.67,0.55 -0.19,0.05 -0.4,0.1 -0.63,0.15 l 1.39,7.48 c 0.14,0.77 -0.36,1.51 -1.13,1.65 -0.47,0.1 -0.94,-0.06 -1.26,-0.38 z"
   id="path5270"
   
   style="fill:#2970ff" />
		</g>
		<g
   id="g5276">
			<path
   class="st1"
   d="m 283.75,458.05 c -0.5,-0.5 -0.56,-1.31 -0.1,-1.88 1.34,-1.68 2.05,-2.3 3.04,-3.17 0.44,-0.39 0.94,-0.83 1.61,-1.46 0.56,-0.53 1.43,-0.51 1.97,0.03 0,0 0,0 0,0 l 6.34,6.35 c 0.55,0.55 0.55,1.45 0,2 -0.55,0.55 -1.45,0.55 -2,0 0,0 0,0 0,0 l -5.38,-5.39 c -0.24,0.22 -0.47,0.41 -0.67,0.6 -0.94,0.82 -1.51,1.32 -2.69,2.81 -0.49,0.61 -1.38,0.71 -1.99,0.22 -0.05,-0.04 -0.09,-0.08 -0.13,-0.11 z"
   id="path5274"
   
   style="fill:#2970ff" />
		</g>
	</g>
	<g
   id="g5292">
		<g
   id="g5282">
			<path
   class="st1"
   d="m 299.44,487.4 c -0.23,-0.23 -0.39,-0.55 -0.41,-0.9 -0.06,-0.78 0.53,-1.46 1.31,-1.51 1.97,-0.14 2.51,-0.27 3.67,-0.55 0.19,-0.05 0.4,-0.1 0.63,-0.15 l -1.39,-7.48 c -0.14,-0.77 0.36,-1.51 1.13,-1.65 0.77,-0.14 1.51,0.37 1.65,1.13 l 1.64,8.82 c 0.14,0.75 -0.35,1.48 -1.1,1.64 -0.83,0.18 -1.4,0.32 -1.9,0.44 -1.24,0.3 -1.92,0.47 -4.13,0.63 -0.43,0.02 -0.82,-0.14 -1.1,-0.42 z"
   id="path5280"
   
   style="fill:#2970ff" />
		</g>
		<g
   id="g5286">
			<path
   class="st1"
   d="m 310.87,470.31 c -0.32,-0.32 -0.48,-0.78 -0.39,-1.26 0.14,-0.77 0.88,-1.28 1.65,-1.13 l 7.48,1.39 c 0.06,-0.23 0.11,-0.44 0.15,-0.63 0.28,-1.16 0.41,-1.69 0.55,-3.67 0.06,-0.78 0.73,-1.37 1.51,-1.31 0.78,0.06 1.37,0.73 1.31,1.51 -0.16,2.21 -0.33,2.89 -0.63,4.13 -0.12,0.5 -0.26,1.07 -0.44,1.9 -0.16,0.75 -0.89,1.24 -1.64,1.1 l -8.82,-1.64 c -0.28,-0.05 -0.53,-0.19 -0.73,-0.39 z"
   id="path5284"
   
   style="fill:#2970ff" />
		</g>
		<g
   id="g5290">
			<path
   class="st1"
   d="m 310.55,484.44 c -0.04,-0.04 -0.07,-0.08 -0.11,-0.12 -0.49,-0.61 -0.39,-1.5 0.22,-1.99 1.48,-1.18 1.98,-1.75 2.81,-2.69 0.18,-0.21 0.38,-0.43 0.6,-0.67 l -5.39,-5.38 c 0,0 0,0 0,0 -0.55,-0.55 -0.55,-1.45 0,-2 0.55,-0.55 1.45,-0.55 2,0 l 6.35,6.34 c 0.54,0.54 0.55,1.42 0.03,1.97 -0.63,0.66 -1.07,1.17 -1.46,1.61 -0.86,0.99 -1.49,1.7 -3.17,3.04 -0.57,0.45 -1.38,0.4 -1.88,-0.11 z"
   id="path5288"
   
   style="fill:#2970ff" />
		</g>
	</g>
</g>
<g
   id="g5328"
   transform="translate(-47.449104,-68.409798)">
	<g
   id="g5298">
		<circle
   class="st1"
   cx="199.53"
   cy="365.39999"
   r="14.05"
   id="circle5296"
   style="fill:#2970ff" />
	</g>
	<g
   id="g5312">
		<g
   id="g5302">
			<path
   class="st1"
   d="m 177.06,369.42 c -0.28,-0.28 -0.44,-0.68 -0.41,-1.1 0.16,-2.21 0.33,-2.89 0.63,-4.13 0.12,-0.5 0.26,-1.07 0.44,-1.9 0.16,-0.75 0.89,-1.24 1.64,-1.1 l 8.82,1.64 c 0.77,0.14 1.28,0.88 1.13,1.65 -0.14,0.77 -0.88,1.28 -1.65,1.13 l -7.48,-1.39 c -0.06,0.23 -0.11,0.44 -0.15,0.63 -0.28,1.16 -0.41,1.69 -0.55,3.67 -0.06,0.78 -0.73,1.37 -1.51,1.31 -0.36,-0.02 -0.68,-0.18 -0.91,-0.41 z"
   id="path5300"
   
   style="fill:#2970ff" />
		</g>
		<g
   id="g5306">
			<path
   class="st1"
   d="m 194.15,357.99 c -0.2,-0.2 -0.34,-0.45 -0.39,-0.74 l -1.64,-8.82 c -0.14,-0.75 0.35,-1.48 1.1,-1.64 0.83,-0.18 1.4,-0.32 1.9,-0.44 1.24,-0.3 1.92,-0.47 4.13,-0.63 0.78,-0.06 1.46,0.53 1.51,1.31 0.06,0.78 -0.53,1.46 -1.31,1.51 -1.97,0.14 -2.51,0.27 -3.67,0.55 -0.19,0.05 -0.4,0.1 -0.63,0.15 l 1.39,7.48 c 0.14,0.77 -0.36,1.51 -1.13,1.65 -0.48,0.1 -0.94,-0.07 -1.26,-0.38 z"
   id="path5304"
   
   style="fill:#2970ff" />
		</g>
		<g
   id="g5310">
			<path
   class="st1"
   d="m 180.02,358.31 c -0.5,-0.5 -0.56,-1.31 -0.1,-1.88 1.34,-1.68 2.05,-2.3 3.04,-3.17 0.44,-0.39 0.94,-0.83 1.61,-1.46 0.56,-0.53 1.43,-0.51 1.97,0.03 0,0 0,0 0,0 l 6.34,6.35 c 0.55,0.55 0.55,1.45 0,2 -0.55,0.55 -1.45,0.55 -2,0 0,0 0,0 0,0 l -5.38,-5.39 c -0.24,0.22 -0.47,0.41 -0.67,0.6 -0.94,0.82 -1.51,1.32 -2.69,2.81 -0.49,0.61 -1.38,0.71 -1.99,0.22 -0.06,-0.03 -0.1,-0.07 -0.13,-0.11 z"
   id="path5308"
   
   style="fill:#2970ff" />
		</g>
	</g>
	<g
   id="g5326">
		<g
   id="g5316">
			<path
   class="st1"
   d="m 195.71,387.67 c -0.23,-0.23 -0.39,-0.55 -0.41,-0.9 -0.06,-0.78 0.53,-1.46 1.31,-1.51 1.97,-0.14 2.51,-0.27 3.67,-0.55 0.19,-0.05 0.4,-0.1 0.63,-0.15 l -1.39,-7.48 c -0.14,-0.77 0.36,-1.51 1.13,-1.65 0.77,-0.14 1.51,0.37 1.65,1.13 l 1.64,8.82 c 0.14,0.75 -0.35,1.48 -1.1,1.64 -0.83,0.18 -1.4,0.32 -1.9,0.44 -1.24,0.3 -1.92,0.47 -4.13,0.63 -0.43,0.02 -0.82,-0.14 -1.1,-0.42 z"
   id="path5314"
   
   style="fill:#2970ff" />
		</g>
		<g
   id="g5320">
			<path
   class="st1"
   d="m 207.14,370.58 c -0.32,-0.32 -0.48,-0.78 -0.39,-1.26 0.14,-0.77 0.88,-1.28 1.65,-1.13 l 7.48,1.39 c 0.06,-0.23 0.11,-0.44 0.15,-0.63 0.28,-1.16 0.41,-1.69 0.55,-3.67 0.06,-0.78 0.73,-1.37 1.51,-1.31 0.78,0.06 1.37,0.73 1.31,1.51 -0.16,2.21 -0.33,2.89 -0.63,4.13 -0.12,0.5 -0.26,1.07 -0.44,1.9 -0.16,0.75 -0.89,1.24 -1.64,1.1 l -8.82,-1.64 c -0.28,-0.06 -0.53,-0.2 -0.73,-0.39 z"
   id="path5318"
   
   style="fill:#2970ff" />
		</g>
		<g
   id="g5324">
			<path
   class="st1"
   d="m 206.81,384.71 c -0.04,-0.04 -0.07,-0.08 -0.11,-0.12 -0.49,-0.61 -0.39,-1.5 0.22,-1.99 1.48,-1.18 1.98,-1.75 2.81,-2.69 0.18,-0.21 0.38,-0.43 0.6,-0.67 l -5.39,-5.38 c 0,0 0,0 0,0 -0.55,-0.55 -0.55,-1.45 0,-2 0.55,-0.55 1.45,-0.55 2,0 l 6.35,6.34 c 0.54,0.54 0.55,1.42 0.03,1.97 -0.63,0.66 -1.07,1.17 -1.46,1.61 -0.86,0.99 -1.49,1.7 -3.17,3.04 -0.56,0.45 -1.37,0.39 -1.88,-0.11 z"
   id="path5322"
   
   style="fill:#2970ff" />
		</g>
	</g>
</g>
<g
   id="g5362"
   transform="translate(-47.449104,-68.409798)">
	<g
   id="g5332">
		<circle
   class="st1"
   cx="340.13"
   cy="360.04999"
   r="14.05"
   id="circle5330"
   style="fill:#2970ff" />
	</g>
	<g
   id="g5346">
		<g
   id="g5336">
			<path
   class="st1"
   d="m 336.1,337.58 c 0.28,-0.28 0.68,-0.44 1.1,-0.41 2.21,0.16 2.89,0.33 4.13,0.63 0.5,0.12 1.07,0.26 1.9,0.44 0.75,0.16 1.24,0.89 1.1,1.64 l -1.64,8.82 c -0.14,0.77 -0.88,1.28 -1.65,1.13 -0.77,-0.14 -1.28,-0.88 -1.13,-1.65 l 1.39,-7.48 c -0.23,-0.06 -0.44,-0.11 -0.63,-0.15 -1.16,-0.28 -1.69,-0.41 -3.67,-0.55 -0.78,-0.06 -1.37,-0.73 -1.31,-1.51 0.03,-0.37 0.18,-0.68 0.41,-0.91 z"
   id="path5334"
   
   style="fill:#2970ff" />
		</g>
		<g
   id="g5340">
			<path
   class="st1"
   d="m 347.54,354.67 c 0.2,-0.2 0.45,-0.34 0.74,-0.39 l 8.82,-1.64 c 0.75,-0.14 1.48,0.35 1.64,1.1 0.18,0.83 0.32,1.4 0.44,1.9 0.3,1.24 0.47,1.92 0.63,4.13 0.06,0.78 -0.53,1.46 -1.31,1.51 -0.78,0.06 -1.46,-0.53 -1.51,-1.31 -0.14,-1.97 -0.27,-2.51 -0.55,-3.67 -0.05,-0.19 -0.1,-0.4 -0.15,-0.63 l -7.48,1.39 c -0.77,0.14 -1.51,-0.36 -1.65,-1.13 -0.1,-0.48 0.06,-0.94 0.38,-1.26 z"
   id="path5338"
   
   style="fill:#2970ff" />
		</g>
		<g
   id="g5344">
			<path
   class="st1"
   d="m 347.21,340.53 c 0.5,-0.5 1.31,-0.56 1.88,-0.1 1.68,1.34 2.3,2.05 3.17,3.04 0.39,0.44 0.83,0.94 1.46,1.61 0.53,0.56 0.51,1.43 -0.03,1.97 0,0 0,0 0,0 l -6.35,6.34 c -0.55,0.55 -1.45,0.55 -2,0 -0.55,-0.55 -0.55,-1.45 0,-2 0,0 0,0 0,0 l 5.39,-5.38 c -0.22,-0.24 -0.41,-0.47 -0.6,-0.67 -0.82,-0.94 -1.32,-1.51 -2.81,-2.69 -0.61,-0.49 -0.71,-1.38 -0.22,-1.99 0.04,-0.05 0.07,-0.09 0.11,-0.13 z"
   id="path5342"
   
   style="fill:#2970ff" />
		</g>
	</g>
	<g
   id="g5360">
		<g
   id="g5350">
			<path
   class="st1"
   d="m 317.86,356.22 c 0.23,-0.23 0.55,-0.39 0.9,-0.41 0.78,-0.06 1.46,0.53 1.51,1.31 0.14,1.97 0.27,2.51 0.55,3.67 0.05,0.19 0.1,0.4 0.15,0.63 l 7.48,-1.39 c 0.77,-0.14 1.51,0.36 1.65,1.13 0.14,0.77 -0.37,1.51 -1.13,1.65 l -8.82,1.64 c -0.75,0.14 -1.48,-0.35 -1.64,-1.1 -0.18,-0.83 -0.32,-1.4 -0.44,-1.9 -0.3,-1.24 -0.47,-1.92 -0.63,-4.13 -0.03,-0.42 0.14,-0.82 0.42,-1.1 z"
   id="path5348"
   
   style="fill:#2970ff" />
		</g>
		<g
   id="g5354">
			<path
   class="st1"
   d="m 334.95,367.66 c 0.32,-0.32 0.78,-0.48 1.26,-0.39 0.77,0.14 1.28,0.88 1.13,1.65 l -1.39,7.48 c 0.23,0.06 0.44,0.11 0.63,0.15 1.16,0.28 1.69,0.41 3.67,0.55 0.78,0.06 1.37,0.73 1.31,1.51 -0.06,0.78 -0.73,1.37 -1.51,1.31 -2.21,-0.16 -2.89,-0.33 -4.13,-0.63 -0.5,-0.12 -1.07,-0.26 -1.9,-0.44 -0.75,-0.16 -1.24,-0.89 -1.1,-1.64 l 1.64,-8.82 c 0.05,-0.28 0.19,-0.54 0.39,-0.73 z"
   id="path5352"
   
   style="fill:#2970ff" />
		</g>
		<g
   id="g5358">
			<path
   class="st1"
   d="m 320.81,367.33 c 0.04,-0.04 0.08,-0.07 0.12,-0.11 0.61,-0.49 1.5,-0.39 1.99,0.22 1.18,1.48 1.75,1.98 2.69,2.81 0.21,0.18 0.43,0.38 0.67,0.6 l 5.38,-5.39 c 0,0 0,0 0,0 0.55,-0.55 1.45,-0.55 2,0 0.55,0.55 0.55,1.45 0,2 l -6.34,6.35 c -0.54,0.54 -1.42,0.55 -1.97,0.03 -0.66,-0.63 -1.17,-1.07 -1.61,-1.46 -0.99,-0.86 -1.7,-1.49 -3.04,-3.17 -0.44,-0.57 -0.39,-1.38 0.11,-1.88 z"
   id="path5356"
   
   style="fill:#2970ff" />
		</g>
	</g>
</g>
<g
   id="g5396"
   transform="translate(-47.449104,-68.409798)">
	<g
   id="g5366">
		<circle
   class="st1"
   cx="312.29999"
   cy="879.60999"
   r="14.05"
   id="circle5364"
   style="fill:#2970ff" />
	</g>
	<g
   id="g5380">
		<g
   id="g5370">
			<path
   class="st1"
   d="m 308.27,857.14 c 0.28,-0.28 0.68,-0.44 1.1,-0.41 2.21,0.16 2.89,0.33 4.13,0.63 0.5,0.12 1.07,0.26 1.9,0.44 0.75,0.16 1.24,0.89 1.1,1.64 l -1.64,8.82 c -0.14,0.77 -0.88,1.28 -1.65,1.13 -0.77,-0.14 -1.28,-0.88 -1.13,-1.65 l 1.39,-7.48 c -0.23,-0.06 -0.44,-0.11 -0.63,-0.15 -1.16,-0.28 -1.69,-0.41 -3.67,-0.55 -0.78,-0.06 -1.37,-0.73 -1.31,-1.51 0.03,-0.37 0.18,-0.68 0.41,-0.91 z"
   id="path5368"
   
   style="fill:#2970ff" />
		</g>
		<g
   id="g5374">
			<path
   class="st1"
   d="m 319.71,874.23 c 0.2,-0.2 0.45,-0.34 0.74,-0.39 l 8.82,-1.64 c 0.75,-0.14 1.48,0.35 1.64,1.1 0.18,0.83 0.32,1.4 0.44,1.9 0.3,1.24 0.47,1.92 0.63,4.13 0.06,0.78 -0.53,1.46 -1.31,1.51 -0.78,0.06 -1.46,-0.53 -1.51,-1.31 -0.14,-1.97 -0.27,-2.51 -0.55,-3.67 -0.05,-0.19 -0.1,-0.4 -0.15,-0.63 l -7.48,1.39 c -0.77,0.14 -1.51,-0.36 -1.65,-1.13 -0.1,-0.48 0.06,-0.94 0.38,-1.26 z"
   id="path5372"
   
   style="fill:#2970ff" />
		</g>
		<g
   id="g5378">
			<path
   class="st1"
   d="m 319.38,860.09 c 0.5,-0.5 1.31,-0.56 1.88,-0.1 1.68,1.34 2.3,2.05 3.17,3.04 0.39,0.44 0.83,0.94 1.46,1.61 0.53,0.56 0.51,1.43 -0.03,1.97 0,0 0,0 0,0 l -6.35,6.34 c -0.55,0.55 -1.45,0.55 -2,0 -0.55,-0.55 -0.55,-1.45 0,-2 0,0 0,0 0,0 l 5.39,-5.38 c -0.22,-0.24 -0.41,-0.47 -0.6,-0.67 -0.82,-0.94 -1.32,-1.51 -2.81,-2.69 -0.61,-0.49 -0.71,-1.38 -0.22,-1.99 0.04,-0.05 0.07,-0.09 0.11,-0.13 z"
   id="path5376"
   
   style="fill:#2970ff" />
		</g>
	</g>
	<g
   id="g5394">
		<g
   id="g5384">
			<path
   class="st1"
   d="m 290.02,875.78 c 0.23,-0.23 0.55,-0.39 0.9,-0.41 0.78,-0.06 1.46,0.53 1.51,1.31 0.14,1.97 0.27,2.51 0.55,3.67 0.05,0.19 0.1,0.4 0.15,0.63 l 7.48,-1.39 c 0.77,-0.14 1.51,0.36 1.65,1.13 0.14,0.77 -0.37,1.51 -1.13,1.65 l -8.82,1.64 c -0.75,0.14 -1.48,-0.35 -1.64,-1.1 -0.18,-0.83 -0.32,-1.4 -0.44,-1.9 -0.3,-1.24 -0.47,-1.92 -0.63,-4.13 -0.02,-0.42 0.14,-0.82 0.42,-1.1 z"
   id="path5382"
   
   style="fill:#2970ff" />
		</g>
		<g
   id="g5388">
			<path
   class="st1"
   d="m 307.11,887.22 c 0.32,-0.32 0.78,-0.48 1.26,-0.39 0.77,0.14 1.28,0.88 1.13,1.65 l -1.39,7.48 c 0.23,0.06 0.44,0.11 0.63,0.15 1.16,0.28 1.69,0.41 3.67,0.55 0.78,0.06 1.37,0.73 1.31,1.51 -0.06,0.78 -0.73,1.37 -1.51,1.31 -2.21,-0.16 -2.89,-0.33 -4.13,-0.63 -0.5,-0.12 -1.07,-0.26 -1.9,-0.44 -0.75,-0.16 -1.24,-0.89 -1.1,-1.64 l 1.64,-8.82 c 0.06,-0.28 0.2,-0.54 0.39,-0.73 z"
   id="path5386"
   
   style="fill:#2970ff" />
		</g>
		<g
   id="g5392">
			<path
   class="st1"
   d="m 292.98,886.89 c 0.04,-0.04 0.08,-0.07 0.12,-0.11 0.61,-0.49 1.5,-0.39 1.99,0.22 1.18,1.48 1.75,1.98 2.69,2.81 0.21,0.18 0.43,0.38 0.67,0.6 l 5.38,-5.39 c 0,0 0,0 0,0 0.55,-0.55 1.45,-0.55 2,0 0.55,0.55 0.55,1.45 0,2 l -6.34,6.35 c -0.54,0.54 -1.42,0.55 -1.97,0.03 -0.66,-0.63 -1.17,-1.07 -1.61,-1.46 -0.99,-0.86 -1.7,-1.49 -3.04,-3.17 -0.45,-0.57 -0.39,-1.38 0.11,-1.88 z"
   id="path5390"
   
   style="fill:#2970ff" />
		</g>
	</g>
</g>

<g
   id="g5464"
   transform="translate(-47.449104,-68.409798)">
	<g
   id="g5434">
		<circle
   class="st1"
   cx="667.13"
   cy="689.03003"
   r="14.05"
   id="circle5432"
   style="fill:#2970ff" />
	</g>
	<g
   id="g5448">
		<g
   id="g5438">
			<path
   class="st1"
   d="m 663.11,666.56 c 0.28,-0.28 0.68,-0.44 1.1,-0.41 2.21,0.16 2.89,0.33 4.13,0.63 0.5,0.12 1.07,0.26 1.9,0.44 0.75,0.16 1.24,0.89 1.1,1.64 l -1.64,8.82 c -0.14,0.77 -0.88,1.28 -1.65,1.13 -0.77,-0.14 -1.28,-0.88 -1.13,-1.65 l 1.39,-7.48 c -0.23,-0.06 -0.44,-0.11 -0.63,-0.15 -1.16,-0.28 -1.69,-0.41 -3.67,-0.55 -0.78,-0.06 -1.37,-0.73 -1.31,-1.51 0.02,-0.36 0.17,-0.68 0.41,-0.91 z"
   id="path5436"
   
   style="fill:#2970ff" />
		</g>
		<g
   id="g5442">
			<path
   class="st1"
   d="m 674.54,683.65 c 0.2,-0.2 0.45,-0.34 0.74,-0.39 l 8.82,-1.64 c 0.75,-0.14 1.48,0.35 1.64,1.1 0.18,0.83 0.32,1.4 0.44,1.9 0.3,1.24 0.47,1.92 0.63,4.13 0.06,0.78 -0.53,1.46 -1.31,1.51 -0.78,0.06 -1.46,-0.53 -1.51,-1.31 -0.14,-1.98 -0.27,-2.51 -0.55,-3.67 -0.05,-0.19 -0.1,-0.4 -0.15,-0.63 l -7.48,1.39 c -0.77,0.14 -1.51,-0.36 -1.65,-1.13 -0.1,-0.47 0.06,-0.94 0.38,-1.26 z"
   id="path5440"
   
   style="fill:#2970ff" />
		</g>
		<g
   id="g5446">
			<path
   class="st1"
   d="m 674.21,669.52 c 0.5,-0.5 1.31,-0.56 1.88,-0.1 1.68,1.34 2.3,2.05 3.17,3.04 0.39,0.44 0.83,0.94 1.46,1.61 0.53,0.56 0.51,1.43 -0.03,1.97 0,0 0,0 0,0 l -6.35,6.34 c -0.55,0.55 -1.45,0.55 -2,0 -0.55,-0.55 -0.55,-1.45 0,-2 0,0 0,0 0,0 l 5.39,-5.38 c -0.22,-0.24 -0.41,-0.47 -0.6,-0.67 -0.82,-0.94 -1.32,-1.51 -2.81,-2.69 -0.61,-0.49 -0.71,-1.38 -0.22,-1.99 0.04,-0.05 0.08,-0.09 0.11,-0.13 z"
   id="path5444"
   
   style="fill:#2970ff" />
		</g>
	</g>
	<g
   id="g5462">
		<g
   id="g5452">
			<path
   class="st1"
   d="m 644.86,685.21 c 0.23,-0.23 0.55,-0.39 0.9,-0.41 0.78,-0.06 1.46,0.53 1.51,1.31 0.14,1.97 0.27,2.51 0.55,3.67 0.05,0.19 0.1,0.4 0.15,0.63 l 7.48,-1.39 c 0.77,-0.14 1.51,0.36 1.65,1.13 0.14,0.77 -0.37,1.51 -1.13,1.65 l -8.82,1.64 c -0.75,0.14 -1.48,-0.35 -1.64,-1.1 -0.18,-0.83 -0.32,-1.4 -0.44,-1.9 -0.3,-1.24 -0.47,-1.92 -0.63,-4.13 -0.02,-0.43 0.14,-0.82 0.42,-1.1 z"
   id="path5450"
   
   style="fill:#2970ff" />
		</g>
		<g
   id="g5456">
			<path
   class="st1"
   d="m 661.95,696.64 c 0.32,-0.32 0.78,-0.48 1.26,-0.39 0.77,0.14 1.28,0.88 1.13,1.65 l -1.39,7.48 c 0.23,0.06 0.44,0.11 0.63,0.15 1.16,0.28 1.69,0.41 3.67,0.55 0.78,0.06 1.37,0.73 1.31,1.51 -0.06,0.78 -0.73,1.37 -1.51,1.31 -2.21,-0.16 -2.89,-0.33 -4.13,-0.63 -0.5,-0.12 -1.07,-0.26 -1.9,-0.44 -0.75,-0.16 -1.24,-0.89 -1.1,-1.64 l 1.64,-8.82 c 0.05,-0.28 0.19,-0.53 0.39,-0.73 z"
   id="path5454"
   
   style="fill:#2970ff" />
		</g>
		<g
   id="g5460">
			<path
   class="st1"
   d="m 647.82,696.32 c 0.04,-0.04 0.08,-0.07 0.12,-0.11 0.61,-0.49 1.5,-0.39 1.99,0.22 1.18,1.48 1.75,1.98 2.69,2.81 0.21,0.18 0.43,0.38 0.67,0.6 l 5.38,-5.39 c 0,0 0,0 0,0 0.55,-0.55 1.45,-0.55 2,0 0.55,0.55 0.55,1.45 0,2 l -6.34,6.35 c -0.54,0.54 -1.42,0.55 -1.97,0.03 -0.66,-0.63 -1.17,-1.07 -1.61,-1.46 -0.99,-0.86 -1.7,-1.49 -3.04,-3.17 -0.45,-0.57 -0.4,-1.38 0.11,-1.88 z"
   id="path5458"
   
   style="fill:#2970ff" />
		</g>
	</g>
</g>
<g
   id="g5498"
   transform="translate(-47.449104,-68.409798)">
	<g
   id="g5468">
		<circle
   class="st1"
   cx="533.46002"
   cy="684.28998"
   r="14.05"
   id="circle5466"
   style="fill:#2970ff" />
	</g>
	<g
   id="g5482">
		<g
   id="g5472">
			<path
   class="st1"
   d="m 529.43,661.82 c 0.28,-0.28 0.68,-0.44 1.1,-0.41 2.21,0.16 2.89,0.33 4.13,0.63 0.5,0.12 1.07,0.26 1.9,0.44 0.75,0.16 1.24,0.89 1.1,1.64 l -1.64,8.82 c -0.14,0.77 -0.88,1.28 -1.65,1.13 -0.77,-0.14 -1.28,-0.88 -1.13,-1.65 l 1.39,-7.48 c -0.23,-0.06 -0.44,-0.11 -0.63,-0.15 -1.16,-0.28 -1.69,-0.41 -3.67,-0.55 -0.78,-0.06 -1.37,-0.73 -1.31,-1.51 0.03,-0.36 0.18,-0.68 0.41,-0.91 z"
   id="path5470"
   
   style="fill:#2970ff" />
		</g>
		<g
   id="g5476">
			<path
   class="st1"
   d="m 540.87,678.91 c 0.2,-0.2 0.45,-0.34 0.74,-0.39 l 8.82,-1.64 c 0.75,-0.14 1.48,0.35 1.64,1.1 0.18,0.83 0.32,1.4 0.44,1.9 0.3,1.24 0.47,1.92 0.63,4.13 0.06,0.78 -0.53,1.46 -1.31,1.51 -0.78,0.06 -1.46,-0.53 -1.51,-1.31 -0.14,-1.98 -0.27,-2.51 -0.55,-3.67 -0.05,-0.19 -0.1,-0.4 -0.15,-0.63 l -7.48,1.39 c -0.77,0.14 -1.51,-0.36 -1.65,-1.13 -0.1,-0.47 0.06,-0.94 0.38,-1.26 z"
   id="path5474"
   
   style="fill:#2970ff" />
		</g>
		<g
   id="g5480">
			<path
   class="st1"
   d="m 540.54,664.78 c 0.5,-0.5 1.31,-0.56 1.88,-0.1 1.68,1.34 2.3,2.05 3.17,3.04 0.39,0.44 0.83,0.94 1.46,1.61 0.53,0.56 0.51,1.43 -0.03,1.97 0,0 0,0 0,0 l -6.35,6.34 c -0.55,0.55 -1.45,0.55 -2,0 -0.55,-0.55 -0.55,-1.45 0,-2 0,0 0,0 0,0 l 5.39,-5.38 c -0.22,-0.24 -0.41,-0.47 -0.6,-0.67 -0.82,-0.94 -1.32,-1.51 -2.81,-2.69 -0.61,-0.49 -0.71,-1.38 -0.22,-1.99 0.04,-0.06 0.07,-0.09 0.11,-0.13 z"
   id="path5478"
   
   style="fill:#2970ff" />
		</g>
	</g>
	<g
   id="g5496">
		<g
   id="g5486">
			<path
   class="st1"
   d="m 511.19,680.47 c 0.23,-0.23 0.55,-0.39 0.9,-0.41 0.78,-0.06 1.46,0.53 1.51,1.31 0.14,1.97 0.27,2.51 0.55,3.67 0.05,0.19 0.1,0.4 0.15,0.63 l 7.48,-1.39 c 0.77,-0.14 1.51,0.36 1.65,1.13 0.14,0.77 -0.37,1.51 -1.13,1.65 l -8.82,1.64 c -0.75,0.14 -1.48,-0.35 -1.64,-1.1 -0.18,-0.83 -0.32,-1.4 -0.44,-1.9 -0.3,-1.24 -0.47,-1.92 -0.63,-4.13 -0.02,-0.43 0.14,-0.82 0.42,-1.1 z"
   id="path5484"
   
   style="fill:#2970ff" />
		</g>
		<g
   id="g5490">
			<path
   class="st1"
   d="m 528.28,691.9 c 0.32,-0.32 0.78,-0.48 1.26,-0.39 0.77,0.14 1.28,0.88 1.13,1.65 l -1.39,7.48 c 0.23,0.06 0.44,0.11 0.63,0.15 1.16,0.28 1.69,0.41 3.67,0.55 0.78,0.06 1.37,0.73 1.31,1.51 -0.06,0.78 -0.73,1.37 -1.51,1.31 -2.21,-0.16 -2.89,-0.33 -4.13,-0.63 -0.5,-0.12 -1.07,-0.26 -1.9,-0.44 -0.75,-0.16 -1.24,-0.89 -1.1,-1.64 l 1.64,-8.82 c 0.05,-0.28 0.19,-0.53 0.39,-0.73 z"
   id="path5488"
   
   style="fill:#2970ff" />
		</g>
		<g
   id="g5494">
			<path
   class="st1"
   d="m 514.14,691.57 c 0.04,-0.04 0.08,-0.07 0.12,-0.11 0.61,-0.49 1.5,-0.39 1.99,0.22 1.18,1.48 1.75,1.98 2.69,2.81 0.21,0.18 0.43,0.38 0.67,0.6 l 5.38,-5.39 c 0,0 0,0 0,0 0.55,-0.55 1.45,-0.55 2,0 0.55,0.55 0.55,1.45 0,2 l -6.34,6.35 c -0.54,0.54 -1.42,0.55 -1.97,0.03 -0.66,-0.63 -1.17,-1.07 -1.61,-1.46 -0.99,-0.86 -1.7,-1.49 -3.04,-3.17 -0.44,-0.56 -0.39,-1.37 0.11,-1.88 z"
   id="path5492"
   
   style="fill:#2970ff" />
		</g>
	</g>
</g>
<g
   id="g5532"
   transform="translate(-47.449104,-68.409798)">
	<g
   id="g5502">
		<circle
   class="st2"
   cx="488.79001"
   cy="499.84"
   r="101.47"
   id="circle5500"
   style="fill:#2ed9a3" />
	</g>
	<g
   id="g5516">
		<g
   id="g5506">
			<path
   class="st2"
   d="m 394.57,635.17 c -2.86,0 -5.71,-1.2 -7.73,-3.53 -10.49,-12.11 -13.12,-16.45 -17.91,-24.32 -1.95,-3.2 -4.15,-6.82 -7.47,-11.95 -3.01,-4.65 -1.77,-10.85 2.79,-13.98 l 53.42,-36.7 c 4.65,-3.2 11.02,-2.02 14.22,2.64 3.2,4.65 2.02,11.02 -2.64,14.22 l -45.31,31.13 c 0.91,1.48 1.72,2.81 2.46,4.02 4.49,7.38 6.53,10.74 15.9,21.56 3.7,4.27 3.23,10.73 -1.04,14.42 -1.93,1.67 -4.32,2.49 -6.69,2.49 z"
   id="path5504"
   
   style="fill:#2ed9a3" />
		</g>
		<g
   id="g5510">
			<path
   class="st2"
   d="m 423.45,489.47 c -2,0 -4.01,-0.58 -5.78,-1.8 l -53.42,-36.7 c -4.56,-3.14 -5.8,-9.34 -2.79,-13.98 3.32,-5.12 5.52,-8.75 7.47,-11.95 4.79,-7.87 7.42,-12.21 17.91,-24.32 3.7,-4.27 10.15,-4.73 14.42,-1.04 4.27,3.7 4.73,10.15 1.04,14.42 -9.36,10.81 -11.41,14.18 -15.9,21.56 -0.74,1.21 -1.55,2.54 -2.46,4.02 l 45.31,31.13 c 4.65,3.2 5.83,9.56 2.64,14.22 -1.98,2.89 -5.18,4.44 -8.44,4.44 z"
   id="path5508"
   
   style="fill:#2ed9a3" />
		</g>
		<g
   id="g5514">
			<path
   class="st2"
   d="m 352.94,563.34 c -5.14,0 -9.56,-3.86 -10.15,-9.09 -1.73,-15.43 -1.28,-22.25 -0.66,-31.69 0.28,-4.25 0.59,-9.06 0.78,-15.65 0.15,-5.54 4.68,-9.94 10.22,-9.94 0,0 0,0 0,0 l 64.81,0.01 c 5.65,0 10.22,4.58 10.22,10.23 0,5.65 -4.58,10.22 -10.22,10.22 0,0 0,0 0,0 l -55,-0.01 c -0.13,2.37 -0.27,4.48 -0.4,6.48 -0.59,9.01 -0.95,14.45 0.58,28.08 0.63,5.61 -3.41,10.67 -9.02,11.3 -0.39,0.04 -0.78,0.06 -1.16,0.06 z"
   id="path5512"
   
   style="fill:#2ed9a3" />
		</g>
	</g>
	<g
   id="g5530">
		<g
   id="g5520">
			<path
   class="st2"
   d="m 583,633.13 c -2.37,0 -4.75,-0.82 -6.69,-2.5 -4.27,-3.7 -4.73,-10.15 -1.04,-14.42 9.36,-10.81 11.41,-14.18 15.9,-21.56 0.74,-1.21 1.55,-2.54 2.46,-4.02 L 548.32,559.5 c -4.65,-3.2 -5.83,-9.56 -2.64,-14.22 3.2,-4.65 9.56,-5.83 14.22,-2.64 l 53.42,36.7 c 4.56,3.14 5.8,9.34 2.79,13.98 -3.32,5.12 -5.52,8.75 -7.47,11.95 -4.79,7.87 -7.42,12.21 -17.91,24.32 -2.02,2.35 -4.86,3.54 -7.73,3.54 z"
   id="path5518"
   
   style="fill:#2ed9a3" />
		</g>
		<g
   id="g5524">
			<path
   class="st2"
   d="m 554.12,487.43 c -3.25,0 -6.45,-1.55 -8.44,-4.44 -3.2,-4.65 -2.02,-11.02 2.64,-14.22 l 45.31,-31.13 c -0.91,-1.48 -1.72,-2.81 -2.46,-4.03 -4.49,-7.38 -6.53,-10.74 -15.9,-21.56 -3.7,-4.27 -3.23,-10.73 1.04,-14.42 4.27,-3.7 10.73,-3.23 14.42,1.04 10.49,12.11 13.12,16.44 17.91,24.32 1.95,3.2 4.15,6.82 7.47,11.95 3.01,4.65 1.77,10.85 -2.79,13.98 l -53.42,36.7 c -1.77,1.23 -3.79,1.81 -5.78,1.81 z"
   id="path5522"
   
   style="fill:#2ed9a3" />
		</g>
		<g
   id="g5528">
			<path
   class="st2"
   d="m 624.63,561.3 c -0.38,0 -0.76,-0.02 -1.15,-0.06 -5.61,-0.63 -9.65,-5.69 -9.02,-11.3 1.53,-13.63 1.17,-19.07 0.58,-28.08 -0.13,-2 -0.27,-4.12 -0.4,-6.48 l -55,0.01 c 0,0 0,0 0,0 -5.65,0 -10.22,-4.58 -10.22,-10.22 0,-5.65 4.58,-10.23 10.22,-10.23 l 64.81,-0.01 c 5.54,0 10.07,4.41 10.22,9.94 0.18,6.59 0.5,11.4 0.78,15.65 0.62,9.44 1.07,16.26 -0.66,31.69 -0.6,5.23 -5.02,9.09 -10.16,9.09 z"
   id="path5526"
   
   style="fill:#2ed9a3" />
		</g>
	</g>
</g>
</svg>