<?xml version="1.0" encoding="UTF-8"?>
<svg width="325mm" height="190mm" stroke-linejoin="round" stroke-width="28.222" version="1.1" viewBox="0 0 32500 19000" xml:space="preserve" xmlns="http://www.w3.org/2000/svg">
 <path d="m16220 18948h-16233v-18961h32466v18961h-16233z" fill="#fff"/><g fill="none" stroke-linejoin="round"><g stroke="#b3b3b3">
 <path d="m16590 16893h-14227v-14242h28454v14242h-14227z"/>
 <path d="m2363 2650v14242"/>
 <path d="m6198 2650v14242"/>
 <path d="m10044 2650v14242"/>
 <path d="m13879 2650v14242"/>
 <path d="m17713 2650v14242"/>
 <path d="m21549 2650v14242"/>
 <path d="m25394 2650v14242"/>
 <path d="m29230 2650v14242"/>
 <path d="m30817 16892h-28454"/>
 <path d="m30817 14518h-28454"/>
 <path d="m30817 12144h-28454"/>
 <path d="m30817 9770h-28454"/>
 <path d="m30817 7397h-28454"/>
 <path d="m30817 5023h-28454"/>
 <path d="m30817 2650h-28454"/>
 <path d="m2363 17042v-150"/>
 <path d="m2363 17042v-150"/>
 <path d="m6198 17042v-150"/>
 <path d="m6198 17042v-150"/>
 <path d="m10044 17042v-150"/>
 <path d="m10044 17042v-150"/>
 <path d="m13879 17042v-150"/>
 <path d="m13879 17042v-150"/>
 <path d="m17713 17042v-150"/>
 <path d="m17713 17042v-150"/>
 <path d="m21549 17042v-150"/>
 <path d="m21549 17042v-150"/>
 <path d="m25394 17042v-150"/>
 <path d="m25394 17042v-150"/>
 <path d="m29230 17042v-150"/>
 <path d="m29230 17042v-150"/>
 <path d="m2363 16892h28454"/>
 <path d="m2213 16892h150"/>
 <path d="m2213 16892h150"/>
 <path d="m2213 14518h150"/>
 <path d="m2213 14518h150"/>
 <path d="m2213 12144h150"/>
 <path d="m2213 12144h150"/>
 <path d="m2213 9770h150"/>
 <path d="m2213 9770h150"/>
 <path d="m2213 7397h150"/>
 <path d="m2213 7397h150"/>
 <path d="m2213 5023h150"/>
 <path d="m2213 5023h150"/>
 <path d="m2213 2650h150"/>
 <path d="m2213 2650h150"/>
 <path d="m2363 16892v-14242"/>
 </g><path d="m2583 16868v-24l11-24 10-23v-24l11-24v-24-23-24l10-24 11-24v-23-24l10-24v-24l11-23v-24-24l63-24v-23l84-24 21-24v-23l10-24v-24l21-24 116-23 84-48 53-24 10-23 32-24 73-24v-24l168-23v-24l74-24 52-24v-23l11-24 10-24 11-24 10-23 32-24 31-24 84-23v-24-24-24l22-23 21-24 31-24 11-24 10-23v-24l32-24 84-24 94-23 116-24v-24-24-23-24l31-24 126-23 63-24 169-24 31-24 11-23v-24-24-24l10-23 242-24 63-24 115-24 63-23 32-24 95-24 21-24 73-23 95-24 84-24 620-24 147-23v-24-24l21-23 200-24 84-48v-23-24l126-48 21-23v-24l84-24v-24-23l10-24 116-24 10-24 11-23 94-24 11-24 105-24 11-23 52-24 11-24 10-23 200-24 10-24 21-24v-23l21-24 74-24 63-24v-23l84-24v-24-24-23l84-24 147-24v-24l21-23 42-24 21-24 74-23 63-24 52-24 63-24v-23l11-24 31-24 84-24 211-23 52-24 126-24v-24l347-23v-24l42-24 105-24 315-23 84-24 274-24 21-24 21-23 283-24 53-24 31-23 63-24 263-24 84-24 32-23 105-24 147-24 31-24v-23l11-24v-24l21-24 158-23 31-24v-24l84-24v-23l21-24v-24-23-24-24l11-24 10-23 63-24 11-24 42-24 52-23 95-24 31-24 21-24v-23-24l32-24 42-24 42-23v-24-24l32-24 21-23 42-24 378-24v-23l189-24 105-24 242-24 262-23 11-24 31-24 21-24 11-23 263-24 42-24 52-24 63-23 32-24v-24l336-24 11-23 105-24 73-24 74-24 31-23 42-24 11-24v-23-24l31-24 253-24v-23-24l115-24 116-24 31-23 21-24 32-24 557-24v-23l94-24 189-24v-24l95-23 137-24 105-24 84-23v-24l10-24v-24l83-23 526-24 10-24 147-24 32-23v-24-24l168-24 147-23 189-24 53-24 147-24 10-23 53-24 284-24 126-24 31-23 147-24 11-24 42-23 294-48v-24-23-24-24-24l74-23 262-24 11-24 262-24 158-23 11-24 1481-24v-24l74-23 315-24 84-24 84-23v-24-24-24l11-23 1261-24 168-24v-24l105-23 21-24v-24-24l368-23 21-24v-24-24-23-24l10-24 32-24 199-23 589-24 52-24 116-23v-24-24-24l147-23 21-24v-24l21-24 189-23 63-24 252-24v-23-23l32-24 94-24 200-24 294-23 63-24 53-24 52-24 11-23 42-24v-24l357-23 179-24 94-24 263-24 53-23v-24-24l231-24v-23-24l10-24 179-24v-23-24l21-24 10-24 242-23 74-24v-24l21-23 105-24 10-24 442-24 273-23 326-24 31-24 105-24v-23l11-24 94-24v-24l32-23 105-24v-24-24-23-24-24l73-24 11-23v-24l52-24v-23-24-24-24-23-24-24l148-24 42-23v-24-24l31-24 11-23v-24-24-24-23l136-24v-24-23l21-24v-24l95-24 10-23 32-24 42-48 31-23 11-24v-24-24-23l10-24v-24l32-24v-23l10-24v-24-24l32-23v-24l21-24v-23-24l42-24 32-24v-23l10-24 21-24v-24-23-24l42-48 32-23 10-24v-24-24-23-24l11-24v-24-23-24-24-23l10-24v-24-24-23-24-24l11-24v-23l31-24v-24-24-23l11-24v-24-24-23l42-48 21-23v-24-24-24-23-24-24-24l10-23v-24-24-24-23-24l11-24v-24l10-23 11-24 10-24v-24l11-23 21-24 10-24v-23l11-24 10-24v-24-23-24-24-24-23-24-24-24l11-23v-24l10-24v-24-23-24-24-23-24-24l11-24v-23-24-24-24l21-23v-24l10-24v-24-23-24l11-24v-24l21-23v-24-24-24-23-24-24-23-24-24-24l10-23v-24" stroke="#004586" stroke-width="80"/>
 </g><path class="SVGTextShape" d="m1913.1 17909h-333.23v-51.538l132.02-133.43q38.124-38.124 64.246-67.776t39.536-57.892q13.414-28.946 13.414-62.834 0-41.654-24.71-62.834-24.71-21.886-64.246-21.886-36.712 0-64.952 12.708-27.534 12.708-56.48 35.3l-33.182-41.654q29.652-24.71 67.776-41.654 38.83-17.65 86.838-17.65 70.6 0 111.55 36.006 40.948 35.3 40.948 98.134 0 39.536-16.238 74.13t-45.184 68.482q-28.946 33.182-67.776 71.306l-105.19 103.78v2.824h254.87zm405.95-252.75q0 81.19-16.944 139.79-16.944 57.892-53.656 88.956t-97.428 31.064q-85.426 0-126.37-68.482-40.242-69.188-40.242-191.33 0-81.896 16.238-139.79 16.944-57.892 53.656-88.25 36.712-31.064 96.722-31.064 84.72 0 126.37 68.482 41.654 67.776 41.654 190.62zm-272.52 0q0 103.78 23.298 155.32 24.004 51.538 81.19 51.538 56.48 0 80.484-50.832 24.71-51.538 24.71-156.03 0-103.08-24.71-154.61-24.004-51.538-80.484-51.538-57.186 0-81.19 51.538-23.298 51.538-23.298 154.61zm557.74 252.75h-60.716v-352.29q0-30.358 0.706-48.714t2.118-38.124q-11.296 11.296-20.474 19.062t-23.298 19.768l-53.656 43.772-32.476-41.654 136.26-105.9h51.538zm520.32-288.75q0 54.362-9.884 107.31-9.178 52.244-34.594 95.31-24.71 42.36-70.6 67.776-45.184 25.416-116.49 25.416-14.12 0-33.182-2.118-18.356-1.412-30.358-4.942v-52.95q27.534 9.178 62.128 9.178 49.42 0 81.19-16.238 32.476-16.238 51.538-43.772 19.062-28.24 27.534-64.952 8.472-37.418 9.884-78.366h-4.236q-15.532 24.004-45.184 41.654-28.946 16.944-74.836 16.944-64.952 0-105.19-39.536-39.536-40.242-39.536-112.96 0-52.95 19.768-91.074 20.474-38.124 56.48-58.598t84.72-20.474q48.008 0 86.838 24.71 38.83 24.004 61.422 73.424 22.592 48.714 22.592 124.26zm-170.85-170.15q-43.772 0-72.012 28.946-27.534 28.946-27.534 88.25 0 48.714 23.298 76.954 24.004 27.534 73.424 27.534 33.888 0 58.598-13.414 24.71-14.12 38.124-35.3 14.12-21.18 14.12-43.772 0-30.358-12.002-60.01t-36.006-49.42-60.01-19.768z" style="white-space:pre" aria-label="2019"/>
 <path class="SVGTextShape" d="m5748.1 17909h-333.23v-51.538l132.02-133.43q38.124-38.124 64.246-67.776t39.536-57.892q13.414-28.946 13.414-62.834 0-41.654-24.71-62.834-24.71-21.886-64.246-21.886-36.712 0-64.952 12.708-27.534 12.708-56.48 35.3l-33.182-41.654q29.652-24.71 67.776-41.654 38.83-17.65 86.838-17.65 70.6 0 111.55 36.006 40.948 35.3 40.948 98.134 0 39.536-16.238 74.13t-45.184 68.482q-28.946 33.182-67.776 71.306l-105.19 103.78v2.824h254.87zm405.95-252.75q0 81.19-16.944 139.79-16.944 57.892-53.656 88.956t-97.428 31.064q-85.426 0-126.37-68.482-40.242-69.188-40.242-191.33 0-81.896 16.238-139.79 16.944-57.892 53.656-88.25 36.712-31.064 96.722-31.064 84.72 0 126.37 68.482 41.654 67.776 41.654 190.62zm-272.52 0q0 103.78 23.298 155.32 24.004 51.538 81.19 51.538 56.48 0 80.484-50.832 24.71-51.538 24.71-156.03 0-103.08-24.71-154.61-24.004-51.538-80.484-51.538-57.186 0-81.19 51.538-23.298 51.538-23.298 154.61zm674.23 252.75h-333.23v-51.538l132.02-133.43q38.124-38.124 64.246-67.776t39.536-57.892q13.414-28.946 13.414-62.834 0-41.654-24.71-62.834-24.71-21.886-64.246-21.886-36.712 0-64.952 12.708-27.534 12.708-56.48 35.3l-33.182-41.654q29.652-24.71 67.776-41.654 38.83-17.65 86.838-17.65 70.6 0 111.55 36.006 40.948 35.3 40.948 98.134 0 39.536-16.238 74.13t-45.184 68.482q-28.946 33.182-67.776 71.306l-105.19 103.78v2.824h254.87zm405.95-252.75q0 81.19-16.944 139.79-16.944 57.892-53.656 88.956t-97.428 31.064q-85.426 0-126.37-68.482-40.242-69.188-40.242-191.33 0-81.896 16.238-139.79 16.944-57.892 53.656-88.25 36.712-31.064 96.722-31.064 84.72 0 126.37 68.482 41.654 67.776 41.654 190.62zm-272.52 0q0 103.78 23.298 155.32 24.004 51.538 81.19 51.538 56.48 0 80.484-50.832 24.71-51.538 24.71-156.03 0-103.08-24.71-154.61-24.004-51.538-80.484-51.538-57.186 0-81.19 51.538-23.298 51.538-23.298 154.61z" style="white-space:pre" aria-label="2020"/>
 <path class="SVGTextShape" d="m9594.1 17909h-333.23v-51.538l132.02-133.43q38.124-38.124 64.246-67.776t39.536-57.892q13.414-28.946 13.414-62.834 0-41.654-24.71-62.834-24.71-21.886-64.246-21.886-36.712 0-64.952 12.708-27.534 12.708-56.48 35.3l-33.182-41.654q29.652-24.71 67.776-41.654 38.83-17.65 86.838-17.65 70.6 0 111.55 36.006 40.948 35.3 40.948 98.134 0 39.536-16.238 74.13t-45.184 68.482q-28.946 33.182-67.776 71.306l-105.19 103.78v2.824h254.87zm405.95-252.75q0 81.19-16.944 139.79-16.944 57.892-53.656 88.956t-97.428 31.064q-85.426 0-126.37-68.482-40.242-69.188-40.242-191.33 0-81.896 16.238-139.79 16.944-57.892 53.656-88.25 36.712-31.064 96.722-31.064 84.72 0 126.37 68.482 41.654 67.776 41.654 190.62zm-272.52 0q0 103.78 23.298 155.32 24.004 51.538 81.19 51.538 56.48 0 80.484-50.832 24.71-51.538 24.71-156.03 0-103.08-24.71-154.61-24.004-51.538-80.484-51.538-57.186 0-81.19 51.538-23.298 51.538-23.298 154.61zm674.23 252.75h-333.23v-51.538l132.02-133.43q38.124-38.124 64.246-67.776t39.536-57.892q13.414-28.946 13.414-62.834 0-41.654-24.71-62.834-24.71-21.886-64.246-21.886-36.712 0-64.952 12.708-27.534 12.708-56.48 35.3l-33.182-41.654q29.652-24.71 67.776-41.654 38.83-17.65 86.838-17.65 70.6 0 111.55 36.006 40.948 35.3 40.948 98.134 0 39.536-16.238 74.13t-45.184 68.482q-28.946 33.182-67.776 71.306l-105.19 103.78v2.824h254.87zm287.34 0h-60.716v-352.29q0-30.358 0.706-48.714t2.118-38.124q-11.296 11.296-20.474 19.062t-23.298 19.768l-53.656 43.772-32.476-41.654 136.26-105.9h51.538z" style="white-space:pre" aria-label="2021"/>
 <path class="SVGTextShape" d="m13429 17909h-333.23v-51.538l132.02-133.43q38.124-38.124 64.246-67.776t39.536-57.892q13.414-28.946 13.414-62.834 0-41.654-24.71-62.834-24.71-21.886-64.246-21.886-36.712 0-64.952 12.708-27.534 12.708-56.48 35.3l-33.182-41.654q29.652-24.71 67.776-41.654 38.83-17.65 86.838-17.65 70.6 0 111.55 36.006 40.948 35.3 40.948 98.134 0 39.536-16.238 74.13t-45.184 68.482q-28.946 33.182-67.776 71.306l-105.19 103.78v2.824h254.87zm405.95-252.75q0 81.19-16.944 139.79-16.944 57.892-53.656 88.956t-97.428 31.064q-85.426 0-126.37-68.482-40.242-69.188-40.242-191.33 0-81.896 16.238-139.79 16.944-57.892 53.656-88.25 36.712-31.064 96.722-31.064 84.72 0 126.37 68.482 41.654 67.776 41.654 190.62zm-272.52 0q0 103.78 23.298 155.32 24.004 51.538 81.19 51.538 56.48 0 80.484-50.832 24.71-51.538 24.71-156.03 0-103.08-24.71-154.61-24.004-51.538-80.484-51.538-57.186 0-81.19 51.538-23.298 51.538-23.298 154.61zm674.23 252.75h-333.23v-51.538l132.02-133.43q38.124-38.124 64.246-67.776t39.536-57.892q13.414-28.946 13.414-62.834 0-41.654-24.71-62.834-24.71-21.886-64.246-21.886-36.712 0-64.952 12.708-27.534 12.708-56.48 35.3l-33.182-41.654q29.652-24.71 67.776-41.654 38.83-17.65 86.838-17.65 70.6 0 111.55 36.006 40.948 35.3 40.948 98.134 0 39.536-16.238 74.13t-45.184 68.482q-28.946 33.182-67.776 71.306l-105.19 103.78v2.824h254.87zm403.83 0h-333.23v-51.538l132.02-133.43q38.124-38.124 64.246-67.776t39.536-57.892q13.414-28.946 13.414-62.834 0-41.654-24.71-62.834-24.71-21.886-64.246-21.886-36.712 0-64.952 12.708-27.534 12.708-56.48 35.3l-33.182-41.654q29.652-24.71 67.776-41.654 38.83-17.65 86.838-17.65 70.6 0 111.55 36.006 40.948 35.3 40.948 98.134 0 39.536-16.238 74.13t-45.184 68.482q-28.946 33.182-67.776 71.306l-105.19 103.78v2.824h254.87z" style="white-space:pre" aria-label="2022"/>
 <path class="SVGTextShape" d="m17263 17909h-333.23v-51.538l132.02-133.43q38.124-38.124 64.246-67.776t39.536-57.892q13.414-28.946 13.414-62.834 0-41.654-24.71-62.834-24.71-21.886-64.246-21.886-36.712 0-64.952 12.708-27.534 12.708-56.48 35.3l-33.182-41.654q29.652-24.71 67.776-41.654 38.83-17.65 86.838-17.65 70.6 0 111.55 36.006 40.948 35.3 40.948 98.134 0 39.536-16.238 74.13t-45.184 68.482q-28.946 33.182-67.776 71.306l-105.19 103.78v2.824h254.87zm405.95-252.75q0 81.19-16.944 139.79-16.944 57.892-53.656 88.956t-97.428 31.064q-85.426 0-126.37-68.482-40.242-69.188-40.242-191.33 0-81.896 16.238-139.79 16.944-57.892 53.656-88.25 36.712-31.064 96.722-31.064 84.72 0 126.37 68.482 41.654 67.776 41.654 190.62zm-272.52 0q0 103.78 23.298 155.32 24.004 51.538 81.19 51.538 56.48 0 80.484-50.832 24.71-51.538 24.71-156.03 0-103.08-24.71-154.61-24.004-51.538-80.484-51.538-57.186 0-81.19 51.538-23.298 51.538-23.298 154.61zm674.23 252.75h-333.23v-51.538l132.02-133.43q38.124-38.124 64.246-67.776t39.536-57.892q13.414-28.946 13.414-62.834 0-41.654-24.71-62.834-24.71-21.886-64.246-21.886-36.712 0-64.952 12.708-27.534 12.708-56.48 35.3l-33.182-41.654q29.652-24.71 67.776-41.654 38.83-17.65 86.838-17.65 70.6 0 111.55 36.006 40.948 35.3 40.948 98.134 0 39.536-16.238 74.13t-45.184 68.482q-28.946 33.182-67.776 71.306l-105.19 103.78v2.824h254.87zm384.77-386.18q0 50.832-28.24 81.19-28.24 29.652-76.248 39.536v2.824q60.716 7.06 90.368 38.124t29.652 81.19q0 43.772-20.474 78.366-20.474 33.888-63.54 52.95-42.36 19.062-109.43 19.062-39.536 0-73.424-6.354-33.888-5.648-64.952-21.18v-57.892q31.77 15.532 68.482 24.71 36.712 8.472 70.6 8.472 67.776 0 97.428-26.122 30.358-26.828 30.358-73.424 0-47.302-37.418-67.776-36.712-21.18-103.78-21.18h-48.714v-52.95h49.42q62.128 0 93.898-26.122 32.476-26.122 32.476-69.188 0-36.712-24.71-56.48-24.71-20.474-67.07-20.474-40.948 0-69.894 12.002t-57.186 30.358l-31.064-42.36q26.828-21.18 66.364-36.712 40.242-15.532 91.074-15.532 79.072 0 117.2 35.3 38.83 35.3 38.83 89.662z" style="white-space:pre" aria-label="2023"/>
 <path class="SVGTextShape" d="m21099 17909h-333.23v-51.538l132.02-133.43q38.124-38.124 64.246-67.776t39.536-57.892q13.414-28.946 13.414-62.834 0-41.654-24.71-62.834-24.71-21.886-64.246-21.886-36.712 0-64.952 12.708-27.534 12.708-56.48 35.3l-33.182-41.654q29.652-24.71 67.776-41.654 38.83-17.65 86.838-17.65 70.6 0 111.55 36.006 40.948 35.3 40.948 98.134 0 39.536-16.238 74.13t-45.184 68.482q-28.946 33.182-67.776 71.306l-105.19 103.78v2.824h254.87zm405.95-252.75q0 81.19-16.944 139.79-16.944 57.892-53.656 88.956t-97.428 31.064q-85.426 0-126.37-68.482-40.242-69.188-40.242-191.33 0-81.896 16.238-139.79 16.944-57.892 53.656-88.25 36.712-31.064 96.722-31.064 84.72 0 126.37 68.482 41.654 67.776 41.654 190.62zm-272.52 0q0 103.78 23.298 155.32 24.004 51.538 81.19 51.538 56.48 0 80.484-50.832 24.71-51.538 24.71-156.03 0-103.08-24.71-154.61-24.004-51.538-80.484-51.538-57.186 0-81.19 51.538-23.298 51.538-23.298 154.61zm674.23 252.75h-333.23v-51.538l132.02-133.43q38.124-38.124 64.246-67.776t39.536-57.892q13.414-28.946 13.414-62.834 0-41.654-24.71-62.834-24.71-21.886-64.246-21.886-36.712 0-64.952 12.708-27.534 12.708-56.48 35.3l-33.182-41.654q29.652-24.71 67.776-41.654 38.83-17.65 86.838-17.65 70.6 0 111.55 36.006 40.948 35.3 40.948 98.134 0 39.536-16.238 74.13t-45.184 68.482q-28.946 33.182-67.776 71.306l-105.19 103.78v2.824h254.87zm426.42-114.37h-73.424v114.37h-60.01v-114.37h-241.45v-52.95l237.22-339.59h64.246v336.76h73.424zm-133.43-214.62q0-36.712 1.412-62.128 1.412-26.122 2.118-49.42h-2.824q-5.648 13.414-14.12 28.946t-16.238 26.122l-151.08 215.33h180.74z" style="white-space:pre" aria-label="2024"/>
 <path class="SVGTextShape" d="m24944 17909h-333.23v-51.538l132.02-133.43q38.124-38.124 64.246-67.776t39.536-57.892q13.414-28.946 13.414-62.834 0-41.654-24.71-62.834-24.71-21.886-64.246-21.886-36.712 0-64.952 12.708-27.534 12.708-56.48 35.3l-33.182-41.654q29.652-24.71 67.776-41.654 38.83-17.65 86.838-17.65 70.6 0 111.55 36.006 40.948 35.3 40.948 98.134 0 39.536-16.238 74.13t-45.184 68.482q-28.946 33.182-67.776 71.306l-105.19 103.78v2.824h254.87zm405.95-252.75q0 81.19-16.944 139.79-16.944 57.892-53.656 88.956t-97.428 31.064q-85.426 0-126.37-68.482-40.242-69.188-40.242-191.33 0-81.896 16.238-139.79 16.944-57.892 53.656-88.25 36.712-31.064 96.722-31.064 84.72 0 126.37 68.482 41.654 67.776 41.654 190.62zm-272.52 0q0 103.78 23.298 155.32 24.004 51.538 81.19 51.538 56.48 0 80.484-50.832 24.71-51.538 24.71-156.03 0-103.08-24.71-154.61-24.004-51.538-80.484-51.538-57.186 0-81.19 51.538-23.298 51.538-23.298 154.61zm674.23 252.75h-333.23v-51.538l132.02-133.43q38.124-38.124 64.246-67.776t39.536-57.892q13.414-28.946 13.414-62.834 0-41.654-24.71-62.834-24.71-21.886-64.246-21.886-36.712 0-64.952 12.708-27.534 12.708-56.48 35.3l-33.182-41.654q29.652-24.71 67.776-41.654 38.83-17.65 86.838-17.65 70.6 0 111.55 36.006 40.948 35.3 40.948 98.134 0 39.536-16.238 74.13t-45.184 68.482q-28.946 33.182-67.776 71.306l-105.19 103.78v2.824h254.87zm230.86-309.23q77.66 0 123.55 38.83t45.89 109.43q0 78.366-50.126 123.55-49.42 44.478-138.38 44.478-38.83 0-73.424-7.06-33.888-7.06-57.186-20.474v-58.598q25.416 15.532 61.422 24.71 36.712 8.472 69.894 8.472 55.774 0 89.662-26.122 34.594-26.828 34.594-82.602 0-49.42-30.358-75.542-30.358-26.828-96.016-26.828-19.768 0-45.184 3.53t-40.948 7.06l-31.064-19.768 19.062-237.92h252.75v56.48h-199.8l-12.002 146.14q12.002-2.118 32.476-4.942t45.184-2.824z" style="white-space:pre" aria-label="2025"/>
 <path class="SVGTextShape" d="m28780 17909h-333.23v-51.538l132.02-133.43q38.124-38.124 64.246-67.776t39.536-57.892q13.414-28.946 13.414-62.834 0-41.654-24.71-62.834-24.71-21.886-64.246-21.886-36.712 0-64.952 12.708-27.534 12.708-56.48 35.3l-33.182-41.654q29.652-24.71 67.776-41.654 38.83-17.65 86.838-17.65 70.6 0 111.55 36.006 40.948 35.3 40.948 98.134 0 39.536-16.238 74.13t-45.184 68.482q-28.946 33.182-67.776 71.306l-105.19 103.78v2.824h254.87zm405.95-252.75q0 81.19-16.944 139.79-16.944 57.892-53.656 88.956t-97.428 31.064q-85.426 0-126.37-68.482-40.242-69.188-40.242-191.33 0-81.896 16.238-139.79 16.944-57.892 53.656-88.25 36.712-31.064 96.722-31.064 84.72 0 126.37 68.482 41.654 67.776 41.654 190.62zm-272.52 0q0 103.78 23.298 155.32 24.004 51.538 81.19 51.538 56.48 0 80.484-50.832 24.71-51.538 24.71-156.03 0-103.08-24.71-154.61-24.004-51.538-80.484-51.538-57.186 0-81.19 51.538-23.298 51.538-23.298 154.61zm674.23 252.75h-333.23v-51.538l132.02-133.43q38.124-38.124 64.246-67.776t39.536-57.892q13.414-28.946 13.414-62.834 0-41.654-24.71-62.834-24.71-21.886-64.246-21.886-36.712 0-64.952 12.708-27.534 12.708-56.48 35.3l-33.182-41.654q29.652-24.71 67.776-41.654 38.83-17.65 86.838-17.65 70.6 0 111.55 36.006 40.948 35.3 40.948 98.134 0 39.536-16.238 74.13t-45.184 68.482q-28.946 33.182-67.776 71.306l-105.19 103.78v2.824h254.87zm75.542-215.33q0-54.362 9.178-106.61 9.884-52.95 34.594-95.31 25.416-43.066 70.6-68.482t116.49-25.416q14.826 0 32.476 1.412 18.356 1.412 29.652 4.942v52.95q-12.708-4.236-28.946-6.354-15.532-2.118-31.77-2.118-48.714 0-81.19 16.238t-51.538 44.478q-18.356 28.24-26.828 64.952t-10.59 78.366h4.236q16.238-24.71 45.184-41.654 28.946-17.65 74.13-17.65 65.658 0 105.9 40.242 40.242 39.536 40.242 112.96 0 79.072-43.772 124.26-43.066 45.184-116.49 45.184-48.008 0-86.838-24.004t-62.128-73.424q-22.592-49.42-22.592-124.96zm170.85 170.15q44.478 0 72.012-28.24 27.534-28.946 27.534-88.956 0-48.008-24.71-76.248-24.004-28.24-72.718-28.24-33.182 0-57.892 14.12-24.71 13.414-38.83 34.594-13.414 21.18-13.414 43.772 0 30.358 12.002 60.716 12.002 29.652 36.006 49.42 24.004 19.062 60.01 19.062z" style="white-space:pre" aria-label="2026"/>
 <path class="SVGTextShape" d="m2073.2 16917q0 81.19-16.944 139.79-16.944 57.892-53.656 88.956t-97.428 31.064q-85.426 0-126.37-68.482-40.242-69.188-40.242-191.33 0-81.896 16.238-139.79 16.944-57.892 53.656-88.25 36.712-31.064 96.722-31.064 84.72 0 126.37 68.482 41.654 67.776 41.654 190.62zm-272.52 0q0 103.78 23.298 155.32 24.004 51.538 81.19 51.538 56.48 0 80.484-50.832 24.71-51.538 24.71-156.03 0-103.08-24.71-154.61-24.004-51.538-80.484-51.538-57.186 0-81.19 51.538-23.298 51.538-23.298 154.61z" style="white-space:pre" aria-label="0"/>
 <path class="SVGTextShape" d="m1137.6 14796h-60.716v-352.29q0-30.358 0.706-48.714t2.118-38.124q-11.296 11.296-20.474 19.062t-23.298 19.768l-53.656 43.772-32.476-41.654 136.26-105.9h51.538zm522.44-252.75q0 81.19-16.944 139.79-16.944 57.892-53.656 88.956t-97.428 31.064q-85.426 0-126.37-68.482-40.242-69.188-40.242-191.33 0-81.896 16.238-139.79 16.944-57.892 53.656-88.25 36.712-31.064 96.722-31.064 84.72 0 126.37 68.482 41.654 67.776 41.654 190.62zm-272.52 0q0 103.78 23.298 155.32 24.004 51.538 81.19 51.538 56.48 0 80.484-50.832 24.71-51.538 24.71-156.03 0-103.08-24.71-154.61-24.004-51.538-80.484-51.538-57.186 0-81.19 51.538-23.298 51.538-23.298 154.61zm676.35 0q0 81.19-16.944 139.79-16.944 57.892-53.656 88.956t-97.428 31.064q-85.426 0-126.37-68.482-40.242-69.188-40.242-191.33 0-81.896 16.238-139.79 16.944-57.892 53.656-88.25 36.712-31.064 96.722-31.064 84.72 0 126.37 68.482 41.654 67.776 41.654 190.62zm-272.52 0q0 103.78 23.298 155.32 24.004 51.538 81.19 51.538 56.48 0 80.484-50.832 24.71-51.538 24.71-156.03 0-103.08-24.71-154.61-24.004-51.538-80.484-51.538-57.186 0-81.19 51.538-23.298 51.538-23.298 154.61z" style="white-space:pre" aria-label="100"/>
 <path class="SVGTextShape" d="m1254.1 12422h-333.23v-51.538l132.02-133.43q38.124-38.124 64.246-67.776t39.536-57.892q13.414-28.946 13.414-62.834 0-41.654-24.71-62.834-24.71-21.886-64.246-21.886-36.712 0-64.952 12.708-27.534 12.708-56.48 35.3l-33.182-41.654q29.652-24.71 67.776-41.654 38.83-17.65 86.838-17.65 70.6 0 111.55 36.006 40.948 35.3 40.948 98.134 0 39.536-16.238 74.13t-45.184 68.482q-28.946 33.182-67.776 71.306l-105.19 103.78v2.824h254.87zm405.95-252.75q0 81.19-16.944 139.79-16.944 57.892-53.656 88.956t-97.428 31.064q-85.426 0-126.37-68.482-40.242-69.188-40.242-191.33 0-81.896 16.238-139.79 16.944-57.892 53.656-88.25 36.712-31.064 96.722-31.064 84.72 0 126.37 68.482 41.654 67.776 41.654 190.62zm-272.52 0q0 103.78 23.298 155.32 24.004 51.538 81.19 51.538 56.48 0 80.484-50.832 24.71-51.538 24.71-156.03 0-103.08-24.71-154.61-24.004-51.538-80.484-51.538-57.186 0-81.19 51.538-23.298 51.538-23.298 154.61zm676.35 0q0 81.19-16.944 139.79-16.944 57.892-53.656 88.956t-97.428 31.064q-85.426 0-126.37-68.482-40.242-69.188-40.242-191.33 0-81.896 16.238-139.79 16.944-57.892 53.656-88.25 36.712-31.064 96.722-31.064 84.72 0 126.37 68.482 41.654 67.776 41.654 190.62zm-272.52 0q0 103.78 23.298 155.32 24.004 51.538 81.19 51.538 56.48 0 80.484-50.832 24.71-51.538 24.71-156.03 0-103.08-24.71-154.61-24.004-51.538-80.484-51.538-57.186 0-81.19 51.538-23.298 51.538-23.298 154.61z" style="white-space:pre" aria-label="200"/>
 <path class="SVGTextShape" d="m1235.1 9661.8q0 50.832-28.24 81.19-28.24 29.652-76.248 39.536v2.824q60.716 7.06 90.368 38.124t29.652 81.19q0 43.772-20.474 78.366-20.474 33.888-63.54 52.95-42.36 19.062-109.43 19.062-39.536 0-73.424-6.354-33.888-5.648-64.952-21.18v-57.892q31.77 15.532 68.482 24.71 36.712 8.472 70.6 8.472 67.776 0 97.428-26.122 30.358-26.828 30.358-73.424 0-47.302-37.418-67.776-36.712-21.18-103.78-21.18h-48.714v-52.95h49.42q62.128 0 93.898-26.122 32.476-26.122 32.476-69.188 0-36.712-24.71-56.48-24.71-20.474-67.07-20.474-40.948 0-69.894 12.002t-57.186 30.358l-31.064-42.36q26.828-21.18 66.364-36.712 40.242-15.532 91.074-15.532 79.072 0 117.2 35.3 38.83 35.3 38.83 89.662zm425.01 133.43q0 81.19-16.944 139.79-16.944 57.892-53.656 88.956t-97.428 31.064q-85.426 0-126.37-68.482-40.242-69.188-40.242-191.33 0-81.896 16.238-139.79 16.944-57.892 53.656-88.25 36.712-31.064 96.722-31.064 84.72 0 126.37 68.482 41.654 67.776 41.654 190.62zm-272.52 0q0 103.78 23.298 155.32 24.004 51.538 81.19 51.538 56.48 0 80.484-50.832 24.71-51.538 24.71-156.03 0-103.08-24.71-154.61-24.004-51.538-80.484-51.538-57.186 0-81.19 51.538-23.298 51.538-23.298 154.61zm676.35 0q0 81.19-16.944 139.79-16.944 57.892-53.656 88.956t-97.428 31.064q-85.426 0-126.37-68.482-40.242-69.188-40.242-191.33 0-81.896 16.238-139.79 16.944-57.892 53.656-88.25 36.712-31.064 96.722-31.064 84.72 0 126.37 68.482 41.654 67.776 41.654 190.62zm-272.52 0q0 103.78 23.298 155.32 24.004 51.538 81.19 51.538 56.48 0 80.484-50.832 24.71-51.538 24.71-156.03 0-103.08-24.71-154.61-24.004-51.538-80.484-51.538-57.186 0-81.19 51.538-23.298 51.538-23.298 154.61z" style="white-space:pre" aria-label="300"/>
 <path class="SVGTextShape" d="m1276.7 7560.6h-73.424v114.37h-60.01v-114.37h-241.45v-52.95l237.22-339.59h64.246v336.76h73.424zm-133.43-214.62q0-36.712 1.412-62.128 1.412-26.122 2.118-49.42h-2.824q-5.648 13.414-14.12 28.946t-16.238 26.122l-151.08 215.33h180.74zm516.79 76.248q0 81.19-16.944 139.79-16.944 57.892-53.656 88.956t-97.428 31.064q-85.426 0-126.37-68.482-40.242-69.188-40.242-191.33 0-81.896 16.238-139.79 16.944-57.892 53.656-88.25 36.712-31.064 96.722-31.064 84.72 0 126.37 68.482 41.654 67.776 41.654 190.62zm-272.52 0q0 103.78 23.298 155.32 24.004 51.538 81.19 51.538 56.48 0 80.484-50.832 24.71-51.538 24.71-156.03 0-103.08-24.71-154.61-24.004-51.538-80.484-51.538-57.186 0-81.19 51.538-23.298 51.538-23.298 154.61zm676.35 0q0 81.19-16.944 139.79-16.944 57.892-53.656 88.956t-97.428 31.064q-85.426 0-126.37-68.482-40.242-69.188-40.242-191.33 0-81.896 16.238-139.79 16.944-57.892 53.656-88.25 36.712-31.064 96.722-31.064 84.72 0 126.37 68.482 41.654 67.776 41.654 190.62zm-272.52 0q0 103.78 23.298 155.32 24.004 51.538 81.19 51.538 56.48 0 80.484-50.832 24.71-51.538 24.71-156.03 0-103.08-24.71-154.61-24.004-51.538-80.484-51.538-57.186 0-81.19 51.538-23.298 51.538-23.298 154.61z" style="white-space:pre" aria-label="400"/>
 <path class="SVGTextShape" d="m1081.2 4991.8q77.66 0 123.55 38.83t45.89 109.43q0 78.366-50.126 123.55-49.42 44.478-138.38 44.478-38.83 0-73.424-7.06-33.888-7.06-57.186-20.474v-58.598q25.416 15.532 61.422 24.71 36.712 8.472 69.894 8.472 55.774 0 89.662-26.122 34.594-26.828 34.594-82.602 0-49.42-30.358-75.542-30.358-26.828-96.016-26.828-19.768 0-45.184 3.53t-40.948 7.06l-31.064-19.768 19.062-237.92h252.75v56.48h-199.8l-12.002 146.14q12.002-2.118 32.476-4.942t45.184-2.824zm578.92 56.48q0 81.19-16.944 139.79-16.944 57.892-53.656 88.956t-97.428 31.064q-85.426 0-126.37-68.482-40.242-69.188-40.242-191.33 0-81.896 16.238-139.79 16.944-57.892 53.656-88.25 36.712-31.064 96.722-31.064 84.72 0 126.37 68.482 41.654 67.776 41.654 190.62zm-272.52 0q0 103.78 23.298 155.32 24.004 51.538 81.19 51.538 56.48 0 80.484-50.832 24.71-51.538 24.71-156.03 0-103.08-24.71-154.61-24.004-51.538-80.484-51.538-57.186 0-81.19 51.538-23.298 51.538-23.298 154.61zm676.35 0q0 81.19-16.944 139.79-16.944 57.892-53.656 88.956t-97.428 31.064q-85.426 0-126.37-68.482-40.242-69.188-40.242-191.33 0-81.896 16.238-139.79 16.944-57.892 53.656-88.25 36.712-31.064 96.722-31.064 84.72 0 126.37 68.482 41.654 67.776 41.654 190.62zm-272.52 0q0 103.78 23.298 155.32 24.004 51.538 81.19 51.538 56.48 0 80.484-50.832 24.71-51.538 24.71-156.03 0-103.08-24.71-154.61-24.004-51.538-80.484-51.538-57.186 0-81.19 51.538-23.298 51.538-23.298 154.61z" style="white-space:pre" aria-label="500"/>
 <path class="SVGTextShape" d="m925.83 2712.7q0-54.362 9.178-106.61 9.884-52.95 34.594-95.31 25.416-43.066 70.6-68.482t116.49-25.416q14.826 0 32.476 1.412 18.356 1.412 29.652 4.942v52.95q-12.708-4.236-28.946-6.354-15.532-2.118-31.77-2.118-48.714 0-81.19 16.238t-51.538 44.478q-18.356 28.24-26.828 64.952t-10.59 78.366h4.236q16.238-24.71 45.184-41.654 28.946-17.65 74.13-17.65 65.658 0 105.9 40.242 40.242 39.536 40.242 112.96 0 79.072-43.772 124.26-43.066 45.184-116.49 45.184-48.008 0-86.838-24.004t-62.128-73.424q-22.592-49.42-22.592-124.96zm170.85 170.15q44.478 0 72.012-28.24 27.534-28.946 27.534-88.956 0-48.008-24.71-76.248-24.004-28.24-72.718-28.24-33.182 0-57.892 14.12-24.71 13.414-38.83 34.594-13.414 21.18-13.414 43.772 0 30.358 12.002 60.716 12.002 29.652 36.006 49.42 24.004 19.062 60.01 19.062zm563.39-207.56q0 81.19-16.944 139.79-16.944 57.892-53.656 88.956t-97.428 31.064q-85.426 0-126.37-68.482-40.242-69.188-40.242-191.33 0-81.896 16.238-139.79 16.944-57.892 53.656-88.25 36.712-31.064 96.722-31.064 84.72 0 126.37 68.482 41.654 67.776 41.654 190.62zm-272.52 0q0 103.78 23.298 155.32 24.004 51.538 81.19 51.538 56.48 0 80.484-50.832 24.71-51.538 24.71-156.03 0-103.08-24.71-154.61-24.004-51.538-80.484-51.538-57.186 0-81.19 51.538-23.298 51.538-23.298 154.61zm676.35 0q0 81.19-16.944 139.79-16.944 57.892-53.656 88.956t-97.428 31.064q-85.426 0-126.37-68.482-40.242-69.188-40.242-191.33 0-81.896 16.238-139.79 16.944-57.892 53.656-88.25 36.712-31.064 96.722-31.064 84.72 0 126.37 68.482 41.654 67.776 41.654 190.62zm-272.52 0q0 103.78 23.298 155.32 24.004 51.538 81.19 51.538 56.48 0 80.484-50.832 24.71-51.538 24.71-156.03 0-103.08-24.71-154.61-24.004-51.538-80.484-51.538-57.186 0-81.19 51.538-23.298 51.538-23.298 154.61z" style="white-space:pre" aria-label="600"/>
 <path class="SVGTextShape" d="m11288 1156.7q0 153.31-83.853 231.23-83.006 77.077-232.08 77.077h-168.55v-604.76h186.34q91.476 0 158.39 33.88t103.33 99.946q36.421 65.219 36.421 162.62zm-80.465 2.541q0-121.12-60.137-177.02-59.29-56.749-168.55-56.749h-99.099v474.32h82.159q245.63 0 245.63-240.55zm379.46-156.7q58.443 0 99.946 25.41 42.35 25.41 64.372 71.995 22.869 45.738 22.869 107.57v44.891h-310.85q1.694 77.077 38.962 117.73 38.115 39.809 105.88 39.809 43.197 0 76.23-7.623 33.88-8.47 69.454-23.716v65.219q-34.727 15.246-68.607 22.022-33.88 7.623-80.465 7.623-64.372 0-114.34-26.257-49.126-26.257-77.077-77.924-27.104-52.514-27.104-127.9 0-74.536 24.563-127.9 25.41-53.361 70.301-82.159 45.738-28.798 105.88-28.798zm-0.847 60.984q-53.361 0-84.7 34.727-30.492 33.88-36.421 94.864h231.23q-0.847-57.596-27.104-93.17-26.257-36.421-83.006-36.421zm485.33 409.95q-60.137 0-107.57-24.563-46.585-24.563-73.689-76.23-26.257-51.667-26.257-132.13 0-83.853 27.951-136.37t75.383-77.077q48.279-24.563 109.26-24.563 34.727 0 66.913 7.623 32.186 6.776 52.514 16.94l-22.869 61.831q-20.328-7.623-47.432-14.399t-50.82-6.776q-133.83 0-133.83 171.94 0 82.159 32.186 126.2 33.033 43.197 97.405 43.197 37.268 0 65.219-7.623 28.798-7.623 52.514-18.634v66.066q-22.869 11.858-50.82 17.787-27.104 6.776-66.066 6.776zm436.2-470.93q12.705 0 27.104 1.694 15.246 0.847 26.257 3.388l-9.317 68.607q-11.011-2.541-24.563-4.235-12.705-1.694-24.563-1.694-34.727 0-65.219 19.481-30.492 18.634-49.126 53.361-17.787 33.88-17.787 79.618v242.24h-74.536v-453.99h60.984l8.47 83.006h3.388q22.022-37.268 56.749-64.372t82.159-27.104zm296.45 0q58.443 0 99.946 25.41 42.35 25.41 64.372 71.995 22.869 45.738 22.869 107.57v44.891h-310.85q1.694 77.077 38.962 117.73 38.115 39.809 105.88 39.809 43.197 0 76.23-7.623 33.88-8.47 69.454-23.716v65.219q-34.727 15.246-68.607 22.022-33.88 7.623-80.465 7.623-64.372 0-114.34-26.257-49.126-26.257-77.077-77.924-27.104-52.514-27.104-127.9 0-74.536 24.563-127.9 25.41-53.361 70.301-82.159 45.738-28.798 105.88-28.798zm-0.847 60.984q-53.361 0-84.7 34.727-30.492 33.88-36.421 94.864h231.23q-0.847-57.596-27.104-93.17-26.257-36.421-83.006-36.421zm464.16 409.95q-84.7 0-135.52-58.443-50.82-59.29-50.82-176.18t50.82-176.18q51.667-60.137 136.37-60.137 52.514 0 85.547 19.481 33.88 19.481 55.055 47.432h5.082q-0.847-11.011-3.388-32.186-1.694-22.022-1.694-34.727v-181.26h74.536v643.72h-60.137l-11.011-60.984h-3.388q-20.328 28.798-54.208 49.126t-87.241 20.328zm11.858-61.831q71.995 0 100.79-38.962 29.645-39.809 29.645-119.43v-13.552q0-84.7-27.951-129.59-27.951-45.738-103.33-45.738-60.137 0-90.629 48.279-29.645 47.432-29.645 127.9 0 81.312 29.645 126.2 30.492 44.891 91.476 44.891zm751.29-551.4q113.5 0 171.09 33.88 58.443 33.033 58.443 116.04 0 53.361-29.645 88.935-29.645 34.727-85.547 44.891v4.235q38.115 5.929 68.607 22.022 31.339 16.093 49.126 45.738t17.787 77.077q0 82.159-56.749 127.05-55.902 44.891-153.31 44.891h-212.6v-604.76zm15.246 257.49q77.924 0 106.72-24.563 28.798-25.41 28.798-74.536 0-49.973-35.574-71.148-34.727-22.022-111.8-22.022h-99.946v192.27zm-111.8 63.525v219.37h121.97q80.465 0 111.8-31.339t31.339-82.159q0-47.432-33.033-76.23-32.186-29.645-116.04-29.645zm843.61-170.25v453.99h-60.984l-11.011-60.137h-3.388q-22.022 35.574-60.984 52.514-38.962 16.093-83.006 16.093-82.159 0-123.66-38.962-41.503-39.809-41.503-126.2v-297.3h75.383v292.22q0 108.42 100.79 108.42 75.383 0 104.18-42.35 29.645-42.35 29.645-121.97v-236.31zm304.92-8.47q44.891 0 80.465 16.94 36.421 16.94 61.831 51.667h4.235l10.164-60.137h59.29v461.62q0 97.405-49.973 146.53-49.126 49.126-153.31 49.126-99.946 0-163.47-28.798v-68.607q66.913 35.574 167.71 35.574 58.443 0 91.476-34.727 33.88-33.88 33.88-93.17v-17.787q0-10.164 0.847-28.798 0.847-19.481 1.694-27.104h-3.388q-45.738 68.607-140.6 68.607-88.088 0-138.06-61.831-49.126-61.831-49.126-172.79 0-108.42 49.126-171.94 49.973-64.372 137.21-64.372zm10.164 62.678q-56.749 0-88.088 45.738-31.339 44.891-31.339 128.74t30.492 128.74q31.339 44.044 90.629 44.044 68.607 0 99.946-36.421 31.339-37.268 31.339-119.43v-17.787q0-93.17-32.186-132.98-32.186-40.656-100.79-40.656zm752.98-204.97q113.5 0 171.09 33.88 58.443 33.033 58.443 116.04 0 53.361-29.645 88.935-29.645 34.727-85.547 44.891v4.235q38.115 5.929 68.607 22.022 31.339 16.093 49.126 45.738t17.787 77.077q0 82.159-56.749 127.05-55.902 44.891-153.31 44.891h-212.6v-604.76zm15.246 257.49q77.924 0 106.72-24.563 28.798-25.41 28.798-74.536 0-49.973-35.574-71.148-34.727-22.022-111.8-22.022h-99.946v192.27zm-111.8 63.525v219.37h121.97q80.465 0 111.8-31.339t31.339-82.159q0-47.432-33.033-76.23-32.186-29.645-116.04-29.645zm858.86 55.902q0 112.65-57.596 174.48-56.749 61.831-154.15 61.831-60.137 0-107.57-27.104-46.585-27.951-73.689-80.465-27.104-53.361-27.104-128.74 0-112.65 56.749-173.64t154.15-60.984q61.831 0 108.42 27.951 47.432 27.104 73.689 79.618 27.104 51.667 27.104 127.05zm-343.04 0q0 80.465 31.339 127.9 32.186 46.585 101.64 46.585 68.607 0 100.79-46.585 32.186-47.432 32.186-127.9t-32.186-126.2-101.64-45.738-100.79 45.738-31.339 126.2zm840.22-226.15v453.99h-60.984l-11.011-60.137h-3.388q-22.022 35.574-60.984 52.514-38.962 16.093-83.006 16.093-82.159 0-123.66-38.962-41.503-39.809-41.503-126.2v-297.3h75.383v292.22q0 108.42 100.79 108.42 75.383 0 104.18-42.35 29.645-42.35 29.645-121.97v-236.31zm362.52-8.47q81.312 0 122.82 39.809 41.503 38.962 41.503 127.05v295.6h-73.689v-290.52q0-109.26-101.64-109.26-75.383 0-104.18 42.35t-28.798 121.97v235.47h-74.536v-453.99h60.137l11.011 61.831h4.235q22.022-35.574 60.984-52.514 38.962-17.787 82.159-17.787zm456.53 409.95q16.94 0 34.727-2.541 17.787-3.388 28.798-6.776v56.749q-11.858 5.929-33.88 9.317-22.022 4.235-42.35 4.235-35.574 0-66.066-11.858-29.645-12.705-48.279-43.197t-18.634-85.547v-264.26h-64.372v-35.574l65.219-29.645 29.645-96.558h44.044v104.18h131.28v57.596h-131.28v262.57q0 41.503 19.481 61.831 20.328 19.481 51.667 19.481zm83.006-401.48h79.618l98.252 258.34q12.705 33.88 22.869 65.219 10.164 30.492 15.246 58.443h3.388q5.082-21.175 16.093-55.055 11.011-34.727 22.869-69.454l92.323-257.49h80.465l-195.66 516.67q-23.716 64.372-61.831 102.49-37.268 38.115-103.33 38.115-20.328 0-35.574-2.541-15.246-1.694-26.257-4.235v-59.29q9.317 1.694 22.022 3.388 13.552 1.694 27.951 1.694 38.962 0 62.678-22.022 24.563-22.022 38.115-58.443l23.716-60.137zm900.36-150.77q112.65 0 166.01 43.197 54.208 42.35 54.208 128.74 0 48.279-17.787 80.465t-45.738 51.667q-27.104 18.634-57.596 29.645l166.01 271.04h-88.935l-146.53-249.86h-120.27v249.86h-76.23v-604.76zm-4.235 66.066h-86.394v224.46h90.629q73.689 0 107.57-28.798 33.88-29.645 33.88-86.394 0-59.29-35.574-83.853-35.574-25.41-110.11-25.41zm529.38 76.23q58.443 0 99.946 25.41 42.35 25.41 64.372 71.995 22.869 45.738 22.869 107.57v44.891h-310.85q1.694 77.077 38.962 117.73 38.115 39.809 105.88 39.809 43.197 0 76.23-7.623 33.88-8.47 69.454-23.716v65.219q-34.727 15.246-68.607 22.022-33.88 7.623-80.465 7.623-64.372 0-114.34-26.257-49.126-26.257-77.077-77.924-27.104-52.514-27.104-127.9 0-74.536 24.563-127.9 25.41-53.361 70.301-82.159 45.738-28.798 105.88-28.798zm-0.847 60.984q-53.361 0-84.7 34.727-30.492 33.88-36.421 94.864h231.23q-0.847-57.596-27.104-93.17-26.257-36.421-83.006-36.421zm519.21-60.984q83.853 0 134.67 58.443 51.667 58.443 51.667 176.18 0 116.04-51.667 176.18-50.82 60.137-135.52 60.137-52.514 0-87.241-19.481-33.88-20.328-53.361-46.585h-5.082q1.694 14.399 3.388 36.421t1.694 38.115v186.34h-74.536v-657.27h60.984l10.164 61.831h3.388q20.328-29.645 53.361-49.973t88.088-20.328zm-13.552 62.678q-69.454 0-98.252 38.962-27.951 38.962-29.645 118.58v14.399q0 83.853 27.104 129.59 27.951 44.891 102.49 44.891 41.503 0 67.76-22.869 27.104-22.869 39.809-61.831 13.552-39.809 13.552-90.629 0-77.924-30.492-124.51-29.645-46.585-92.323-46.585zm713.17 171.94q0 112.65-57.596 174.48-56.749 61.831-154.15 61.831-60.137 0-107.57-27.104-46.585-27.951-73.689-80.465-27.104-53.361-27.104-128.74 0-112.65 56.749-173.64t154.15-60.984q61.831 0 108.42 27.951 47.432 27.104 73.689 79.618 27.104 51.667 27.104 127.05zm-343.04 0q0 80.465 31.339 127.9 32.186 46.585 101.64 46.585 68.607 0 100.79-46.585 32.186-47.432 32.186-127.9t-32.186-126.2-101.64-45.738-100.79 45.738-31.339 126.2zm672.52-234.62q12.705 0 27.104 1.694 15.246 0.847 26.257 3.388l-9.317 68.607q-11.011-2.541-24.563-4.235-12.705-1.694-24.563-1.694-34.727 0-65.219 19.481-30.492 18.634-49.126 53.361-17.787 33.88-17.787 79.618v242.24h-74.536v-453.99h60.984l8.47 83.006h3.388q22.022-37.268 56.749-64.372t82.159-27.104zm289.68 409.95q16.94 0 34.727-2.541 17.787-3.388 28.798-6.776v56.749q-11.858 5.929-33.88 9.317-22.022 4.235-42.35 4.235-35.574 0-66.066-11.858-29.645-12.705-48.279-43.197t-18.634-85.547v-264.26h-64.372v-35.574l65.219-29.645 29.645-96.558h44.044v104.18h131.28v57.596h-131.28v262.57q0 41.503 19.481 61.831 20.328 19.481 51.667 19.481zm449.76-72.842q0 66.066-49.126 99.946t-132.13 33.88q-47.432 0-82.159-7.623-33.88-7.623-60.137-21.175v-67.76q27.104 13.552 65.219 25.41 38.962 11.011 78.771 11.011 56.749 0 82.159-17.787 25.41-18.634 25.41-49.126 0-16.94-9.317-30.492t-33.88-27.104q-23.716-13.552-68.607-30.492-44.044-16.94-75.383-33.88t-48.279-40.656-16.94-60.984q0-57.596 46.585-88.935 47.432-31.339 123.66-31.339 41.503 0 77.077 8.47 36.421 7.623 67.76 22.022l-25.41 59.29q-28.798-11.858-60.137-20.328t-64.372-8.47q-45.738 0-70.301 15.246-23.716 14.399-23.716 39.809 0 18.634 11.011 32.186 11.011 12.705 36.421 25.41 26.257 11.858 69.454 28.798 43.197 16.093 73.689 33.033t46.585 41.503q16.093 23.716 16.093 60.137z" style="white-space:pre" aria-label="Decred Bug Bounty Reports"/>
</svg>
